<svg width="540" height="568" viewBox="0 0 540 568" fill="none" xmlns="http://www.w3.org/2000/svg">
<path d="M43.6408 564.965C43.6408 564.965 22.0718 453.399 22.0718 430.426C22.0718 398.695 46.3052 386.002 46.3052 386.002L36.8656 359.056H88.8088L80.6634 385.85C80.6634 385.85 108.005 400.357 104.199 433.294C97.0558 494.891 85.7003 564.953 85.7003 564.953L43.6408 564.965Z" fill="#F5F5F5"/>
<path d="M93.1858 398.695C92.9916 398.712 92.7963 398.712 92.6021 398.695C92.0418 398.634 91.4782 398.609 90.9147 398.618C88.729 398.651 86.5719 399.122 84.5709 400.002C81.4311 401.408 78.6602 403.524 76.4761 406.183C75.0949 407.825 73.8516 409.578 72.7587 411.425C71.5032 413.476 70.4129 415.624 69.4979 417.847C68.484 420.257 67.9703 422.848 67.9881 425.463C68.0686 428.287 69.1579 430.989 71.0585 433.078C72.0562 434.164 73.3269 434.962 74.7379 435.388C76.1897 435.814 77.738 435.774 79.1659 435.274C82.1686 434.117 84.465 431.632 85.3829 428.547C86.2848 425.275 85.4682 421.768 83.2133 419.231C80.9405 416.532 77.8012 414.706 74.3319 414.065C70.7051 413.51 66.9957 413.949 63.5982 415.334C60.0721 416.728 56.8107 418.716 53.9556 421.211C48.1732 426.071 44.1771 432.722 42.6001 440.11C41.8726 443.583 41.942 447.177 42.8031 450.619C43.5211 453.929 45.3038 456.911 47.8782 459.111C49.1043 460.151 50.5918 460.836 52.1793 461.091C53.7123 461.326 55.2793 461.016 56.6073 460.215C59.114 458.496 60.5988 455.639 60.5658 452.599C60.6118 451.175 60.3296 449.759 59.7411 448.462C59.1201 447.217 58.2574 446.108 57.2036 445.2C55.2036 443.496 52.7784 442.369 50.1873 441.938C45.7298 441.227 41.1629 442.036 37.2206 444.235C34.1959 445.869 31.5634 448.143 29.5065 450.899C28.1843 452.625 27.1319 454.542 26.3853 456.585C25.8651 457.981 25.6875 458.755 25.6494 458.743C25.7875 457.991 25.9869 457.253 26.2457 456.534C26.941 454.45 27.9601 452.488 29.2654 450.721C31.3143 447.893 33.9667 445.556 37.0302 443.88C41.0849 441.567 45.8081 440.712 50.4157 441.455C53.1073 441.887 55.6299 443.045 57.7111 444.806C58.8088 445.756 59.7097 446.911 60.3628 448.208C60.9946 449.588 61.3027 451.094 61.2637 452.612C61.2877 455.859 59.694 458.905 57.0133 460.735C55.5552 461.625 53.8296 461.972 52.1412 461.713C50.4347 461.453 48.8324 460.728 47.5102 459.618C44.7898 457.329 42.8992 454.206 42.1307 450.734C41.2309 447.19 41.1485 443.487 41.8896 439.907C43.5054 432.38 47.5811 425.605 53.4734 420.653C56.3981 418.1 59.7362 416.066 63.3444 414.636C66.8716 413.219 70.7159 412.78 74.4715 413.367C78.1226 414.032 81.4261 415.954 83.8096 418.799C84.9455 420.194 85.7677 421.818 86.2203 423.559C86.657 425.277 86.6087 427.083 86.0807 428.776C85.0884 432.062 82.6277 434.702 79.4197 435.922C77.8621 436.455 76.177 436.491 74.5984 436.023C73.0775 435.55 71.7137 434.673 70.6525 433.485C68.6571 431.261 67.5191 428.399 67.4425 425.412C67.4315 422.707 67.9756 420.029 69.0412 417.543C69.9903 415.307 71.1102 413.147 72.3907 411.082C73.5059 409.221 74.7794 407.458 76.197 405.815C78.4329 403.13 81.2718 401.012 84.4821 399.634C86.5115 398.772 88.6974 398.34 90.902 398.365C91.673 398.391 92.4389 398.501 93.1858 398.695Z" fill="#E0E0E0"/>
<path d="M94.5309 482.972C94.666 484.872 94.5077 486.782 94.0615 488.633C93.5962 490.844 92.8277 492.979 91.7777 494.979C90.4144 497.629 88.5684 500.001 86.3347 501.973C83.6206 504.366 80.3694 506.068 76.857 506.936C72.8135 507.986 68.5616 507.924 64.55 506.758C60.1139 505.41 56.2299 502.669 53.4737 498.939C50.403 494.959 48.8874 489.995 49.2106 484.978C49.3378 482.392 50.4341 479.95 52.2811 478.137C54.2469 476.48 56.9268 475.952 59.3735 476.74C61.726 477.389 63.7082 478.977 64.8545 481.132C65.8623 483.22 66.1178 485.592 65.5777 487.846C65.1051 489.976 64.0762 491.943 62.5961 493.545C61.2005 495.031 59.5052 496.204 57.6226 496.985C54.2521 498.354 50.5825 498.817 46.9776 498.33C44.021 497.963 41.152 497.078 38.5023 495.716C36.5022 494.703 34.6496 493.422 32.9958 491.908C31.5521 490.655 30.3109 489.187 29.3164 487.554C29.4123 487.636 29.4976 487.73 29.5702 487.834L30.2553 488.697C31.1586 489.765 32.1381 490.766 33.1861 491.692C34.8506 493.145 36.6974 494.373 38.6799 495.347C41.2963 496.651 44.1228 497.48 47.0284 497.797C50.5368 498.245 54.1013 497.768 57.3688 496.414C59.1694 495.662 60.7876 494.532 62.114 493.101C63.5003 491.578 64.4628 489.718 64.9053 487.707C65.3969 485.604 65.1552 483.396 64.2201 481.449C63.1472 479.475 61.3135 478.026 59.1451 477.438C56.9527 476.747 54.559 477.226 52.8012 478.708C51.095 480.391 50.0888 482.659 49.9846 485.054C49.6615 489.875 51.0948 494.65 54.0193 498.495C56.669 502.122 60.4213 504.794 64.715 506.111C68.6101 507.261 72.7432 507.34 76.6794 506.339C80.1181 505.513 83.3078 503.872 85.9795 501.554C88.1886 499.639 90.0253 497.333 91.3971 494.751C92.4592 492.81 93.2572 490.735 93.7697 488.582C94.0928 487.222 94.3091 485.839 94.4167 484.445C94.4167 484 94.4167 483.645 94.4802 483.353C94.4796 483.224 94.4967 483.096 94.5309 482.972Z" fill="#E0E0E0"/>
<path d="M84.8628 535.544C84.7867 535.684 82.5283 534.466 78.5951 533.323C77.5277 533.005 76.4433 532.746 75.3471 532.549C74.1798 532.282 72.8984 532.155 71.5408 531.978C68.625 531.699 65.6894 531.699 62.7736 531.978C59.8692 532.333 57.0055 532.966 54.2222 533.869C52.9534 534.339 51.6846 534.745 50.6569 535.265C49.6372 535.716 48.642 536.22 47.6753 536.776C44.0974 538.756 42.1562 540.444 42.0674 540.317C42.4416 539.866 42.8675 539.462 43.3361 539.111C43.8701 538.651 44.4338 538.227 45.0236 537.842C45.7738 537.29 46.5577 536.785 47.3708 536.331C48.3354 535.745 49.3354 535.22 50.3651 534.757C51.5568 534.196 52.7764 533.696 54.0192 533.26C56.8438 532.299 59.7608 531.636 62.7229 531.28C65.6756 530.977 68.6515 530.977 71.6042 531.28C72.8832 531.436 74.1535 531.656 75.4105 531.94C76.5193 532.161 77.6127 532.454 78.6839 532.816C79.5768 533.083 80.4537 533.4 81.3103 533.767C81.9718 534.016 82.6161 534.309 83.2388 534.643C83.8128 534.881 84.3577 535.183 84.8628 535.544Z" fill="#E0E0E0"/>
<path d="M81.2341 387.449C80.7033 387.905 80.1297 388.309 79.5212 388.655C78.392 389.404 76.7046 390.394 74.573 391.523C63.375 397.402 51.0111 400.719 38.3752 401.233C35.9645 401.322 34.0106 401.309 32.6657 401.233C31.9639 401.24 31.2629 401.181 30.5723 401.055C31.2651 400.953 31.9659 400.915 32.6657 400.941C34.0106 400.941 35.9518 400.865 38.3498 400.713C50.8625 399.918 63.091 396.635 74.3193 391.054C76.4635 389.988 78.1256 389.074 79.3943 388.414C79.9802 388.042 80.5955 387.72 81.2341 387.449Z" fill="#E0E0E0"/>
<path d="M87.7808 360.389C87.7808 360.465 86.512 360.275 84.2029 360.262C80.9557 360.272 77.7308 360.799 74.649 361.823C72.5295 362.529 70.492 363.461 68.5717 364.603C67.5078 365.243 66.4864 365.951 65.5139 366.722C64.4644 367.501 63.5217 368.414 62.71 369.439C61.8548 370.472 61.2704 371.702 61.0098 373.018C60.765 374.371 61.2126 375.757 62.2025 376.711C63.2917 377.663 64.5993 378.33 66.0088 378.653C67.4184 379.156 68.9243 379.33 70.4114 379.161C71.7982 378.736 72.7521 377.464 72.7713 376.013C72.8786 374.563 72.5752 373.111 71.8958 371.825C70.6334 369.318 68.6073 367.278 66.1103 365.999C63.8681 364.798 61.3817 364.125 58.8402 364.032C56.6155 363.988 54.3989 364.314 52.2807 364.996C49.203 366.029 46.3113 367.55 43.7166 369.502C42.803 370.2 42.1052 370.771 41.6358 371.139C41.408 371.357 41.157 371.548 40.8872 371.71C41.0769 371.459 41.2939 371.229 41.5343 371.025C41.9783 370.606 42.6508 370.01 43.5516 369.274C46.1108 367.202 49.008 365.587 52.1158 364.501C54.2822 363.753 56.5612 363.384 58.8529 363.41C61.5071 363.488 64.1093 364.165 66.4655 365.39C69.1054 366.722 71.2487 368.867 72.581 371.507C73.3196 372.916 73.6493 374.503 73.5325 376.089C73.4688 376.925 73.1889 377.73 72.7205 378.425C72.2204 379.15 71.4705 379.665 70.6144 379.872C69.0023 380.088 67.3619 379.914 65.8311 379.364C64.2922 379.01 62.8661 378.277 61.6823 377.232C60.5336 376.112 60.0114 374.497 60.2866 372.916C60.5801 371.478 61.2253 370.135 62.1644 369.007C63.0187 367.952 64.0036 367.009 65.0952 366.202C66.0978 365.425 67.1488 364.713 68.2418 364.07C70.2097 362.926 72.2993 362.007 74.4714 361.328C77.61 360.326 80.8974 359.871 84.1902 359.983C85.0822 360.003 85.9721 360.079 86.8546 360.211C87.1689 360.236 87.4795 360.296 87.7808 360.389Z" fill="#E0E0E0"/>
<rect x="14.0913" y="8.45316" width="161.209" height="289.705" fill="#EBEBEB"/>
<rect x="20.5366" y="16.8555" width="146.657" height="272.671" fill="#FAFAFA"/>
<path d="M182.114 300.76L175.3 298.158V3.54119H182.114V300.76Z" fill="#E0E0E0"/>
<path d="M56.5566 192.988C69.2443 181.142 81.9319 169.334 94.6196 157.564C99.4409 153.083 105.747 148.248 111.951 150.456C114.945 151.522 117.191 154.073 120.109 155.292C125.958 157.729 132.644 154.213 137.136 149.745C141.627 145.278 145.18 139.693 150.636 136.456C156.091 133.22 164.592 133.639 167.231 139.376V177.91L111.875 201.619L56.5566 192.988Z" fill="#F5F5F5"/>
<path d="M20.5366 170.827C34.5692 165.116 48.5763 169.964 58.5996 181.324C60.7057 183.71 62.6342 186.401 65.5397 187.785C69.4729 189.574 74.0151 188.241 78.3162 187.785C90.3495 186.574 102.043 192.225 108.576 202.406L61.6954 225.456L20.5366 225.164V170.827Z" fill="#E0E0E0"/>
<path d="M167.193 171.018C157.957 166.55 149.811 171.957 141.285 177.669C132.759 183.38 124.791 190.716 114.831 193.026C108.145 194.562 100.976 193.712 94.531 196.009C81.3612 200.705 73.7486 217.421 59.8049 218.221C52.1923 218.652 45.4298 214.058 38.6673 210.605C31.9048 207.153 26.576 203.878 20.5493 208.499V289.514H167.193V171.018Z" fill="#EBEBEB"/>
<rect x="20.5366" y="95.2948" width="149.841" height="2.90657" fill="#E0E0E0"/>
<rect x="20.5366" y="160.229" width="149.841" height="2.90657" fill="#E0E0E0"/>
<rect x="20.5366" y="225.164" width="149.841" height="2.90657" fill="#E0E0E0"/>
<path d="M90.166 297.244L90.166 96.729H97.5756L97.5756 297.244H90.166Z" fill="#E0E0E0"/>
<rect x="48.7793" y="16.8555" width="3.36223" height="79.8862" fill="#E0E0E0"/>
<rect x="77.7324" y="16.8555" width="3.36223" height="79.8862" fill="#E0E0E0"/>
<rect x="106.673" y="16.8555" width="3.36223" height="79.8862" fill="#E0E0E0"/>
<rect x="135.626" y="16.8555" width="3.36223" height="79.8862" fill="#E0E0E0"/>
<rect x="7.27783" y="3.54119" width="6.81327" height="296.406" fill="#E0E0E0"/>
<rect x="7.27783" y="0.545776" width="174.836" height="7.90738" fill="#E0E0E0"/>
<rect x="2.43115" y="301.737" width="184.288" height="7.36161" fill="#E0E0E0"/>
<path d="M175.3 298.158L186.732 301.737H2.43115L14.0911 298.158H175.3Z" fill="#EBEBEB"/>
<path d="M481.276 560.777V180.372H476.569V560.866L437.656 563.785H476.569H481.276H520.189L481.276 560.777Z" fill="#EBEBEB"/>
<path d="M452.044 147.232L434.573 225.379H523.285L503.327 147.473L452.044 147.232Z" fill="#E0E0E0"/>
<path d="M468.309 257.047C468.106 257.047 467.967 247.452 467.992 235.622C468.017 223.793 468.195 214.197 468.398 214.21C468.601 214.223 468.753 223.793 468.715 235.622C468.677 247.452 468.512 257.047 468.309 257.047Z" fill="#E0E0E0"/>
<path d="M468.271 256.895C468.271 256.806 468.906 256.895 469.185 257.694C469.342 258.177 469.257 258.707 468.956 259.116C468.532 259.631 467.82 259.806 467.205 259.548C466.641 259.378 466.231 258.889 466.165 258.303C466.099 257.717 466.388 257.148 466.901 256.857C467.649 256.412 468.17 256.781 468.17 256.857C468.17 256.933 467.7 256.857 467.256 257.288C467.022 257.5 466.884 257.798 466.876 258.113C466.916 258.471 467.165 258.771 467.51 258.875C467.841 259.024 468.23 258.953 468.487 258.697C468.689 258.453 468.777 258.134 468.728 257.821C468.614 257.225 468.22 256.996 468.271 256.895Z" fill="#E0E0E0"/>
<rect x="435.664" y="17.3633" width="89.3845" height="93.2132" fill="#E0E0E0"/>
<rect x="429.612" y="17.3633" width="89.3845" height="93.2132" fill="#EBEBEB"/>
<rect x="441.627" y="29.8907" width="65.3541" height="68.1583" fill="#FAFAFA"/>
<path d="M441.627 98.4933C441.151 99.1654 440.607 99.7864 440.003 100.346C438.95 101.451 437.466 102.885 435.829 104.56C434.192 106.236 432.682 107.619 431.566 108.66C431.003 109.255 430.378 109.786 429.701 110.246C430.184 109.584 430.728 108.968 431.325 108.406C432.378 107.302 433.862 105.868 435.499 104.192C437.136 102.517 438.658 101.121 439.775 100.093C440.336 99.4981 440.957 98.9622 441.627 98.4933Z" fill="#E0E0E0"/>
<path d="M506.968 98.3282C507.641 98.8079 508.262 99.3566 508.821 99.9656C509.924 101.019 511.358 102.504 513.033 104.129C514.708 105.753 516.091 107.289 517.131 108.393C517.725 108.956 518.257 109.582 518.717 110.259C518.05 109.781 517.434 109.237 516.877 108.635C515.786 107.581 514.34 106.096 512.665 104.459C510.99 102.821 509.595 101.298 508.567 100.194C507.97 99.6297 507.435 99.0043 506.968 98.3282V98.3282Z" fill="#E0E0E0"/>
<path d="M506.803 30.0684C507.29 29.4015 507.838 28.7811 508.44 28.2153C509.493 27.1237 510.977 25.6768 512.601 24.0141C514.225 22.3514 515.761 20.9425 516.865 19.9144C517.434 19.327 518.059 18.7957 518.73 18.3279C518.256 18.9942 517.716 19.6109 517.118 20.1683C516.065 21.2598 514.581 22.7068 512.944 24.3822C511.307 26.0576 509.785 27.4537 508.681 28.4818C508.114 29.0772 507.485 29.6091 506.803 30.0684Z" fill="#E0E0E0"/>
<path d="M441.449 30.2461C440.783 29.7586 440.163 29.2105 439.597 28.6087C438.506 27.5553 437.06 26.0703 435.397 24.4456C433.735 22.821 432.327 21.2852 431.299 20.181C430.716 19.6045 430.181 18.9804 429.701 18.3152C430.373 18.7903 430.994 19.3348 431.553 19.9398C432.644 20.9806 434.091 22.4783 435.765 24.1156C437.44 25.7529 438.836 27.276 439.863 28.3803C440.458 28.9431 440.99 29.5687 441.449 30.2461Z" fill="#E0E0E0"/>
<path d="M506.803 98.049C506.803 98.049 506.803 97.9348 506.803 97.719C506.803 97.5032 506.803 97.1732 506.803 96.7671C506.803 95.9167 506.803 94.6855 506.803 93.0863C506.803 89.8751 506.803 85.1789 506.803 79.2008C506.803 67.2699 506.74 50.262 506.689 29.8907L506.905 30.1064H441.741L441.995 29.8653C441.995 54.8821 441.995 78.2869 441.995 98.0236L441.779 97.8079L488.99 97.9221H502.236H505.738H502.325H489.117L441.779 98.0236H441.576V97.8206C441.576 78.0838 441.576 54.6663 441.576 29.6622V29.4211H441.83H506.994H506.968V29.6368C506.968 50.0589 506.892 67.1176 506.867 79.1373C506.867 85.09 506.867 89.7609 506.867 92.972C506.867 94.5586 506.867 95.7771 506.867 96.6148V97.7317C506.852 97.8386 506.831 97.9446 506.803 98.049Z" fill="#E0E0E0"/>
<path d="M458.882 58.3852C458.882 58.3852 457.474 75.2661 475.744 75.2661C475.744 66.2291 468.322 59.1213 458.882 58.3852Z" fill="#EBEBEB"/>
<path d="M492.301 58.3852C492.301 58.3852 475.439 56.989 475.439 75.2661C484.435 75.2534 491.54 67.8157 492.301 58.3852Z" fill="#EBEBEB"/>
<path d="M474.932 49.1451C474.932 49.1451 461.153 61.5202 475.693 75.2407C482.456 68.0695 481.872 56.8367 474.932 49.1451Z" fill="#E0E0E0"/>
<rect x="205.036" y="27.0538" width="200.081" height="417.514" rx="25.37" fill="#FAFAFA"/>
<path d="M373.087 444.568L376.117 444.378C377.114 444.251 378.351 444.06 379.803 443.794L382.126 443.184C382.96 442.968 383.805 442.588 384.727 442.27C389.228 440.493 393.262 437.7 396.519 434.106C398.626 431.849 400.376 429.279 401.708 426.488C403.27 423.337 404.282 419.94 404.7 416.445C404.993 412.516 405.086 408.575 404.978 404.636C404.978 400.48 404.978 396.129 404.978 391.584C404.978 382.48 404.978 372.538 404.978 361.975C404.978 340.732 404.978 316.532 404.978 289.792C404.978 236.313 404.978 172.637 404.902 101.877V75.0992C404.902 70.5791 404.902 66.0209 404.902 61.4499C404.902 60.3072 404.902 59.1518 404.839 58.0218C404.826 56.8855 404.725 55.752 404.536 54.6317L404.271 52.9303C404.157 52.3843 403.993 51.8256 403.867 51.2797C403.74 50.7337 403.589 50.1623 403.425 49.6164L402.831 48.0039C401.218 43.6941 398.684 39.7932 395.408 36.5766C392.09 33.3143 388.105 30.8185 383.73 29.2631C381.532 28.4767 379.254 27.94 376.937 27.6633C375.789 27.4982 374.614 27.5109 373.44 27.4348C372.266 27.3586 371.079 27.4348 369.893 27.4348H237.09C232.061 27.4581 227.107 28.6625 222.622 30.9518C218.172 33.2326 214.328 36.5497 211.411 40.6269C208.474 44.6513 206.547 49.3294 205.793 54.2635L205.515 56.0918L205.427 57.9456C205.338 59.2153 205.427 60.485 205.427 61.6785V69.1443C205.427 89.0193 205.427 108.585 205.427 127.842C205.427 166.327 205.427 203.44 205.427 238.801C205.427 274.162 205.427 307.758 205.427 339.209C205.427 354.928 205.427 370.096 205.427 384.715C205.427 392.003 205.427 399.164 205.427 406.16C205.328 409.608 205.421 413.058 205.705 416.495C206.109 419.833 207.061 423.081 208.52 426.107C209.889 429.09 211.736 431.826 213.987 434.208C218.291 438.866 223.885 442.121 230.046 443.553C230.783 443.748 231.534 443.888 232.293 443.972C233.035 444.119 233.785 444.216 234.54 444.264C236.042 444.352 237.545 444.429 239.047 444.403H272.882H327.056L361.308 444.467H370.145H373.175H370.145H361.308L327.056 444.53H272.882H239.047C237.545 444.53 236.03 444.53 234.502 444.403C233.745 444.403 232.987 444.2 232.23 444.111C231.464 444.018 230.704 443.873 229.957 443.68C226.89 442.974 223.942 441.819 221.208 440.251C218.387 438.648 215.832 436.614 213.633 434.22C211.346 431.811 209.47 429.04 208.078 426.018C206.594 422.949 205.626 419.654 205.212 416.267C204.921 412.809 204.82 409.337 204.909 405.868V384.664C204.909 370.062 204.909 354.894 204.909 339.158C204.909 307.708 204.909 274.111 204.909 238.75C204.909 203.389 204.909 166.276 204.909 127.792V61.6277C204.909 60.358 204.909 59.0883 204.972 57.8186L205.073 55.9268L205.351 54.0603C206.113 49.0077 208.079 44.2156 211.083 40.0936C214.069 35.9359 217.993 32.5503 222.534 30.2154C227.111 27.8859 232.163 26.6559 237.292 26.6222H369.792C370.978 26.6222 372.165 26.6222 373.352 26.6222C374.539 26.6222 375.738 26.6983 376.912 26.8634C384.017 27.7175 390.641 30.9143 395.749 35.9544C399.096 39.2559 401.682 43.2566 403.324 47.6737L403.917 49.3116C404.094 49.8703 404.22 50.4417 404.372 51.0003C404.523 51.559 404.662 52.1304 404.788 52.7017L405.053 54.4158C405.24 55.5623 405.345 56.7206 405.369 57.8821C405.445 59.0502 405.369 60.1929 405.432 61.3357C405.432 65.9066 405.432 70.4648 405.432 74.9849V101.826C405.432 172.536 405.432 236.211 405.356 289.741C405.356 316.481 405.356 340.682 405.356 361.924C405.356 372.538 405.356 382.429 405.356 391.533C405.356 396.079 405.356 400.429 405.356 404.586C405.456 408.533 405.355 412.482 405.053 416.419C404.637 419.958 403.608 423.396 402.011 426.577C400.65 429.364 398.884 431.931 396.771 434.195C393.483 437.792 389.413 440.578 384.879 442.334C383.944 442.651 383.098 443.032 382.265 443.235L379.93 443.832C378.465 444.099 377.215 444.276 376.23 444.391L373.087 444.568Z" fill="#263238"/>
<path d="M385.888 51.7748C381.033 52.215 376.149 52.215 371.294 51.7748C376.149 51.3347 381.033 51.3347 385.888 51.7748Z" fill="#263238"/>
<path d="M385.888 56.5616C381.033 57.0017 376.149 57.0017 371.294 56.5616C376.149 56.1215 381.033 56.1215 385.888 56.5616Z" fill="#263238"/>
<path d="M385.888 61.3484C381.033 61.7885 376.149 61.7885 371.294 61.3484C376.149 60.9082 381.033 60.9082 385.888 61.3484Z" fill="#263238"/>
<path d="M285.129 61.3484V56.2696L282.604 60.4723H282.149L279.624 56.3077V61.3103H278.677V54.4412H279.485L282.351 59.2915L285.179 54.4412H286.063V61.3484H285.129Z" fill="#263238"/>
<path d="M292.602 56.1172L290.077 61.8816C289.623 62.9863 289.017 63.3291 288.222 63.3291C287.731 63.3427 287.253 63.1705 286.883 62.8466L287.287 62.1356C287.538 62.379 287.873 62.5155 288.222 62.5165C288.676 62.5165 288.954 62.3133 289.219 61.7039L289.383 61.3484L287.085 56.1172H288.07L289.85 60.2818L291.643 56.0918L292.602 56.1172Z" fill="#263238"/>
<path fill-rule="evenodd" clip-rule="evenodd" d="M298.94 59.2534C300.733 59.2534 301.819 58.3519 301.819 56.8409C301.819 55.3427 300.733 54.4412 298.94 54.4412H296.264V61.3484H297.248V59.2534H298.94ZM298.915 55.2919C300.177 55.2919 300.834 55.8633 300.834 56.8409C300.834 57.8313 300.177 58.4027 298.915 58.4027H297.248V55.2919H298.915Z" fill="#263238"/>
<path d="M305.834 56.0664V56.9806H305.606C305.143 56.9491 304.69 57.1298 304.373 57.4724C304.057 57.815 303.912 58.2828 303.978 58.7455V61.2849H303.031V56.1172H303.927V56.9933C304.336 56.345 305.075 55.9858 305.834 56.0664Z" fill="#263238"/>
<path fill-rule="evenodd" clip-rule="evenodd" d="M308.092 56.1748C307.08 56.6134 306.431 57.6243 306.452 58.7328C306.43 59.4588 306.711 60.1611 307.226 60.6698C307.741 61.1786 308.445 61.4476 309.166 61.4119C310.269 61.4117 311.261 60.7409 311.678 59.7146C312.095 58.6883 311.854 57.5102 311.067 56.7337C310.28 55.9571 309.105 55.7362 308.092 56.1748ZM309.11 57.0578C310.067 57.0258 310.873 57.7711 310.921 58.7328C310.957 59.219 310.787 59.6978 310.452 60.051C310.118 60.4041 309.651 60.5986 309.166 60.5865C308.209 60.5853 307.429 59.8126 307.414 58.8498C307.399 57.8871 308.153 57.0897 309.11 57.0578Z" fill="#263238"/>
<path fill-rule="evenodd" clip-rule="evenodd" d="M317.259 54.4666C317.263 54.2982 317.332 54.1381 317.453 54.0214C317.574 53.9047 317.736 53.8411 317.903 53.8445C318.252 53.8445 318.534 54.1287 318.534 54.4793C318.534 54.8299 318.252 55.1142 317.903 55.1142C317.736 55.1176 317.574 55.0539 317.453 54.9372C317.332 54.8205 317.263 54.6604 317.259 54.492V54.4666ZM315.025 53.9333C315.401 53.9194 315.773 54.0261 316.085 54.2381L315.807 54.9618C315.594 54.8066 315.338 54.7223 315.075 54.7206C314.52 54.7206 314.229 55.038 314.229 55.6347V56.0918H315.744V56.8663H314.254V61.323H313.308V56.8917H312.424V56.1172H313.308V55.6474C313.264 55.1784 313.431 54.7142 313.763 54.3823C314.096 54.0504 314.559 53.8857 315.025 53.9333ZM318.37 56.0918H317.423V61.323H318.37V56.0918Z" fill="#263238"/>
<path d="M320.15 54.0222H321.097V61.3484H320.15V54.0222Z" fill="#263238"/>
<path fill-rule="evenodd" clip-rule="evenodd" d="M323.37 59.0121H327.587C327.566 58.9261 327.541 58.8413 327.511 58.7582C327.553 58.0587 327.305 57.3729 326.827 56.8632C326.349 56.3535 325.683 56.0652 324.986 56.0664C324.278 56.0406 323.593 56.3145 323.096 56.8215C322.599 57.3284 322.337 58.0219 322.372 58.7328C322.356 59.4729 322.651 60.1856 323.185 60.6956C323.718 61.2056 324.441 61.4657 325.175 61.4118C325.951 61.4599 326.705 61.1461 327.22 60.5612L326.703 59.9517C326.318 60.3729 325.769 60.6047 325.2 60.5865C324.272 60.6322 323.469 59.9417 323.37 59.0121ZM323.372 58.3265H323.37V58.3646C323.37 58.3518 323.371 58.3391 323.372 58.3265ZM326.703 58.3265H323.372C323.432 57.4591 324.168 56.7929 325.036 56.8282C325.899 56.8049 326.63 57.462 326.703 58.3265Z" fill="#263238"/>
<rect x="272.175" y="197.092" width="66.4454" height="3.96145" fill="#FD6A7E"/>
<path d="M365.259 207.465C365.259 207.656 339.378 207.808 307.449 207.808C275.521 207.808 249.627 207.656 249.627 207.465C249.627 207.275 275.508 207.135 307.449 207.135C339.391 207.135 365.259 207.287 365.259 207.465Z" fill="#263238"/>
<ellipse cx="247.367" cy="248.794" rx="19.695" ry="19.8073" fill="#FD6A7E"/>
<ellipse cx="304.975" cy="248.794" rx="19.695" ry="19.8073" fill="#FD6A7E"/>
<ellipse cx="362.583" cy="248.794" rx="19.695" ry="19.8073" fill="#FD6A7E"/>
<path d="M271.999 277.4C271.999 277.578 260.964 277.73 247.367 277.73C233.77 277.73 222.749 277.578 222.749 277.4C222.749 277.222 233.77 277.07 247.367 277.07C260.964 277.07 271.999 277.171 271.999 277.4Z" fill="#263238"/>
<path d="M326.387 277.4C326.387 277.578 316.805 277.73 304.924 277.73C293.044 277.73 283.462 277.578 283.462 277.4C283.462 277.222 293.044 277.07 304.924 277.07C316.805 277.07 326.387 277.171 326.387 277.4Z" fill="#263238"/>
<path d="M382.291 277.4C382.291 277.578 372.708 277.73 360.828 277.73C348.948 277.73 339.429 277.578 339.429 277.4C339.429 277.222 349.011 277.07 360.828 277.07C372.645 277.07 382.291 277.171 382.291 277.4Z" fill="#263238"/>
<path d="M384.955 345.481C384.955 345.481 384.955 345.189 384.955 344.643C384.955 344.097 384.955 343.285 384.955 342.231C384.955 340.098 384.955 336.961 384.955 332.898C384.955 324.747 384.891 312.901 384.841 297.944L385.043 298.147L225.097 298.274L225.425 297.944V345.481L225.097 345.164L339.391 345.303L372.898 345.392H381.912H384.248H385.056H384.285H381.887H372.948L339.505 345.494L224.996 345.634H224.68V345.316C224.68 330.181 224.68 314.196 224.68 297.779V297.449H225.021L384.967 297.563H385.182V297.779C385.182 312.786 385.093 324.684 385.068 332.848C385.068 336.898 385.068 340.021 385.068 342.142C385.068 343.183 385.068 343.97 385.068 344.529C385.068 345.088 384.955 345.481 384.955 345.481Z" fill="#263238"/>
<path d="M373.882 313.078C373.882 313.256 343.14 313.409 305.202 313.409C267.264 313.409 236.522 313.256 236.522 313.078C236.522 312.901 267.264 312.748 305.202 312.748C343.14 312.748 373.882 312.952 373.882 313.078Z" fill="#263238"/>
<path d="M373.882 322.487C373.882 322.677 343.14 322.817 305.202 322.817C267.264 322.817 236.522 322.677 236.522 322.487C236.522 322.296 267.264 322.157 305.202 322.157C343.14 322.157 373.882 322.309 373.882 322.487Z" fill="#263238"/>
<path d="M373.882 331.908C373.882 332.086 343.14 332.238 305.202 332.238C267.264 332.238 236.522 332.086 236.522 331.908C236.522 331.73 267.264 331.578 305.202 331.578C343.14 331.578 373.882 331.73 373.882 331.908Z" fill="#263238"/>
<path d="M384.954 405.132C384.954 405.132 384.954 404.852 384.954 404.306C384.954 403.76 384.954 402.935 384.954 401.881C384.954 399.748 384.954 396.612 384.954 392.549C384.954 384.41 384.891 372.551 384.841 357.594L385.043 357.81L225.096 357.924L225.425 357.594V405.132L225.096 404.814L339.391 404.966L372.897 405.055H381.912H384.247H385.055C385.055 405.055 384.803 405.055 384.285 405.055H381.987H373.049L339.605 405.144L225.096 405.297H224.781V404.966C224.781 389.832 224.781 373.859 224.781 357.429V357.099H225.122L385.068 357.226H385.282V357.429C385.282 372.437 385.194 384.347 385.169 392.511C385.169 396.561 385.169 399.672 385.169 401.805C385.169 402.833 385.169 403.633 385.169 404.179C385.169 404.725 384.954 405.132 384.954 405.132Z" fill="#263238"/>
<path d="M373.882 372.729C373.882 372.919 343.14 373.059 305.202 373.059C267.264 373.059 236.522 372.919 236.522 372.729C236.522 372.538 267.264 372.399 305.202 372.399C343.14 372.399 373.882 372.551 373.882 372.729Z" fill="#263238"/>
<path d="M373.882 382.15C373.882 382.328 343.14 382.48 305.202 382.48C267.264 382.48 236.522 382.328 236.522 382.15C236.522 381.972 267.264 381.82 305.202 381.82C343.14 381.82 373.882 381.96 373.882 382.15Z" fill="#263238"/>
<path d="M373.882 391.558C373.882 391.749 343.14 391.889 305.202 391.889C267.264 391.889 236.522 391.749 236.522 391.558C236.522 391.368 267.264 391.228 305.202 391.228C343.14 391.228 373.882 391.381 373.882 391.558Z" fill="#263238"/>
<path d="M227.154 61.3611H227.394H228.063H230.513L230.437 61.4372C230.437 60.8913 230.437 60.2945 230.437 59.647C230.437 59.3168 230.437 58.9994 230.437 58.6185C230.513 58.21 230.846 57.9002 231.257 57.8567C231.661 57.8567 232.002 57.8567 232.432 57.8567C232.897 57.9315 233.239 58.3351 233.24 58.809C233.24 59.6343 233.24 60.5104 233.24 61.3484L233.126 61.2341H236.219L236.093 61.3484C236.093 60.0787 236.093 58.809 236.093 57.4758C236.093 57.1457 236.093 56.8155 236.093 56.4854C236.066 56.1914 235.908 55.9254 235.664 55.7617L234.3 54.3523L233.038 53.0826L232.406 52.4605C232.192 52.2446 232.028 52.0288 231.775 51.978C231.531 51.9125 231.27 51.964 231.068 52.1177C230.879 52.27 230.677 52.4986 230.487 52.689C230.298 52.8795 229.742 53.4508 229.376 53.8064C228.682 54.5428 227.95 55.203 227.432 55.8379C227.276 56.2014 227.219 56.6003 227.268 56.9933V58.0852C227.268 58.7582 227.268 59.3549 227.268 59.8501C227.268 60.3453 227.268 60.6754 227.268 60.9802C227.28 61.1153 227.28 61.2513 227.268 61.3865C227.268 61.3865 227.268 61.2595 227.268 61.0055C227.268 60.7516 227.268 60.3453 227.268 59.9009C227.268 59.4565 227.268 58.7963 227.268 58.1233C227.268 57.7678 227.268 57.3996 227.268 57.006V56.3965C227.268 56.1687 227.329 55.945 227.445 55.749C228.013 55.038 228.707 54.4793 229.402 53.6667L230.5 52.5367C230.702 52.3335 230.866 52.1431 231.093 51.9399C231.352 51.751 231.679 51.6859 231.99 51.7622C232.282 51.8684 232.539 52.0528 232.735 52.2954L233.366 52.9176L234.628 54.1873L235.979 55.457C236.108 55.5689 236.223 55.6969 236.32 55.8379C236.425 55.9912 236.482 56.1724 236.484 56.3585C236.484 56.6886 236.484 57.0187 236.484 57.3488C236.484 58.6185 236.484 59.9644 236.484 61.2214V61.3357H236.371H233.277H233.038V61.2214C233.038 60.3199 233.038 59.4438 233.038 58.682C233.044 58.3103 232.782 57.9883 232.419 57.9202H231.295C230.963 57.9529 230.691 58.2004 230.626 58.5296C230.626 58.8344 230.626 59.2026 230.626 59.52V61.3738H227.205L227.154 61.3611Z" fill="#263238"/>
<ellipse cx="302.531" cy="133.769" rx="50.202" ry="49.9464" transform="rotate(-76.94 302.531 133.769)" fill="#E0E0E0"/>
<path d="M342.509 139.117C344.861 136.36 345.456 132.501 344.045 129.157C342.634 125.813 339.461 123.562 335.856 123.348C337.041 119.975 336.375 116.224 334.102 113.472C331.829 110.72 328.285 109.374 324.771 109.927C324.537 106.382 322.61 103.17 319.601 101.309C316.592 99.4473 312.872 99.1671 309.621 100.557C307.534 98.0026 304.378 96.5784 301.094 96.708C297.809 96.8376 294.774 98.5062 292.893 101.217L290.267 101.357C285.66 101.534 281.351 103.693 278.437 107.286C278.288 107.489 278.119 107.676 277.932 107.845C275.407 110.219 272.756 112.758 271.859 116.123C270.862 119.856 272.188 124.148 270.307 127.55C269.574 128.884 268.375 129.963 267.883 131.359C266.936 134.089 268.766 137.035 268.552 139.917C268.337 142.799 265.812 145.631 266.115 148.678C266.551 150.878 267.878 152.796 269.776 153.973C271.659 155.13 273.415 156.484 275.016 158.01C276.177 159.28 276.935 160.994 278.071 162.353C281.59 166.199 287.467 166.654 291.529 163.394C294.245 165.471 297.793 166.095 301.048 165.07C304.248 164.04 307.258 162.492 309.962 160.486C311.184 162.17 313.175 163.112 315.244 162.986C317.313 162.861 319.176 161.684 320.188 159.864C320.895 162.086 323.521 163.216 325.831 162.988C328.109 162.57 330.266 161.646 332.144 160.283C335.856 157.985 339.997 154.95 340.098 150.57C340.161 147.891 338.62 145.123 339.63 142.647C340.399 141.325 341.37 140.134 342.509 139.117Z" fill="#263238"/>
<path d="M317.499 122.497C316.666 120.212 317.032 117.672 316.716 115.26C316.034 109.927 311.906 105.432 306.932 103.477C301.843 101.683 296.295 101.715 291.226 103.566C287.393 104.722 283.951 106.919 281.278 109.914C277.849 114.076 276.64 119.651 278.033 124.871L305.126 121.227C307.519 123.505 310.266 125.375 313.257 126.763C314.138 127.167 315.108 127.333 316.072 127.246C317.051 127.139 317.879 126.47 318.193 125.532C318.267 124.473 318.025 123.416 317.499 122.497Z" fill="#263238"/>
<path d="M314.103 116.39L290.557 111.07C283.045 110.46 278.298 119.869 278.021 127.449C277.705 135.867 277.667 146.151 278.816 152.386C281.126 164.943 290.784 166.289 290.784 166.289C290.784 166.289 290.784 174.872 290.999 179.443C299.521 183.519 308.283 182.935 317.221 178.922L318.155 120.796C318.156 118.488 316.39 116.569 314.103 116.39Z" fill="#B78876"/>
<path d="M282.906 135.257C282.926 136.13 283.629 136.831 284.497 136.845C284.911 136.865 285.316 136.719 285.622 136.437C285.928 136.156 286.109 135.763 286.126 135.346C286.105 134.473 285.403 133.773 284.535 133.759C284.12 133.735 283.713 133.881 283.406 134.163C283.099 134.445 282.919 134.84 282.906 135.257Z" fill="#263238"/>
<path d="M280.369 132.718C280.584 132.921 281.77 131.994 283.5 131.944C285.23 131.893 286.517 132.743 286.707 132.528C286.896 132.312 286.58 132.058 286.025 131.664C284.476 130.647 282.461 130.708 280.975 131.817C280.445 132.248 280.268 132.655 280.369 132.718Z" fill="#263238"/>
<path d="M299.306 135.257C299.32 136.133 300.026 136.838 300.897 136.845C301.311 136.869 301.716 136.723 302.021 136.44C302.326 136.158 302.503 135.763 302.513 135.346C302.499 134.471 301.793 133.766 300.922 133.759C300.508 133.735 300.103 133.881 299.798 134.163C299.493 134.446 299.316 134.841 299.306 135.257Z" fill="#263238"/>
<path d="M297.425 132.655C297.627 132.858 298.826 131.918 300.556 131.88C302.286 131.842 303.573 132.68 303.75 132.451C303.927 132.223 303.637 131.982 303.068 131.601C302.321 131.103 301.439 130.85 300.543 130.877C299.629 130.882 298.742 131.19 298.018 131.753C297.425 132.121 297.286 132.515 297.425 132.655Z" fill="#263238"/>
<path d="M291.441 145.669C290.521 145.398 289.571 145.249 288.613 145.225C288.171 145.225 287.754 145.123 287.679 144.818C287.635 144.379 287.723 143.937 287.931 143.549C288.322 142.457 288.726 141.314 289.194 140.133C290.327 137.247 291.231 134.275 291.895 131.245C290.527 134.042 289.387 136.947 288.487 139.93L287.325 143.358C287.056 143.901 286.989 144.522 287.136 145.11C287.275 145.425 287.549 145.659 287.881 145.745C288.124 145.805 288.375 145.831 288.625 145.821C289.567 145.89 290.512 145.838 291.441 145.669Z" fill="#263238"/>
<path d="M290.785 166.276C296.687 166.215 302.457 164.505 307.45 161.337C307.45 161.337 303.448 170.225 290.873 169.323L290.785 166.276Z" fill="#AA6550"/>
<path d="M292.287 149.834C292.923 148.959 293.965 148.478 295.039 148.564C295.812 148.612 296.532 148.974 297.034 149.567C297.529 150.146 297.605 150.977 297.223 151.637C296.674 152.291 295.786 152.547 294.976 152.284C294.152 152.01 293.389 151.579 292.729 151.014C292.533 150.875 292.362 150.703 292.224 150.506C292.09 150.311 292.09 150.054 292.224 149.859" fill="#AA6550"/>
<path d="M296.567 146.735C296.276 146.735 296.327 148.615 294.749 149.999C293.171 151.383 291.176 151.268 291.176 151.484C291.176 151.7 291.63 151.84 292.438 151.84C293.537 151.827 294.596 151.427 295.43 150.71C296.23 150.017 296.729 149.037 296.819 147.98C296.908 147.18 296.693 146.723 296.567 146.735Z" fill="#263238"/>
<path d="M296.958 127.347C297.147 127.817 298.864 127.55 300.897 127.741C302.93 127.931 304.584 128.452 304.849 128.02C304.962 127.817 304.672 127.373 303.99 126.928C303.096 126.387 302.089 126.061 301.049 125.976C300.005 125.879 298.954 126.031 297.981 126.42C297.248 126.75 296.882 127.131 296.958 127.347Z" fill="#263238"/>
<path d="M280.684 125.1C281 125.493 282.174 125.1 283.613 124.986C285.053 124.871 286.265 125.189 286.53 124.77C286.643 124.567 286.441 124.173 285.899 123.817C285.186 123.37 284.35 123.161 283.512 123.221C282.668 123.263 281.858 123.564 281.189 124.084C280.697 124.503 280.546 124.909 280.684 125.1Z" fill="#263238"/>
<path d="M321.88 118.878C319.519 111.616 308.952 101.623 301.377 102.207L289.333 109.597C290.18 113.806 293.245 117.214 297.324 118.485C299.47 119.132 302.046 119.285 303.321 121.126C304.596 122.967 303.902 125.773 305.126 127.703C306.818 130.394 311.439 130.242 312.701 133.15C313.257 134.419 312.979 135.943 313.56 137.213C314.343 138.889 318.61 141.022 320.352 140.425C322.094 139.828 322.082 136.845 322.65 135.27C323.356 133.483 323.432 131.507 322.865 129.671C322.044 126.154 323.003 122.345 321.88 118.878Z" fill="#263238"/>
<path d="M320.314 137.378C320.251 137.378 320.504 136.73 320.693 135.549C320.931 133.878 320.797 132.173 320.302 130.56C319.589 128.167 318.066 126.1 315.997 124.719C314.718 123.976 313.394 123.314 312.032 122.738C310.507 122.111 309.127 121.173 307.98 119.983C307.013 118.662 306.223 117.219 305.632 115.691C303.949 112.032 300.359 109.64 296.352 109.508C294.673 109.465 293.006 109.808 291.479 110.511C290.381 110.994 289.85 111.413 289.812 111.362C289.775 111.311 289.926 111.222 290.179 111.032C290.551 110.743 290.948 110.488 291.365 110.27C292.901 109.447 294.612 109.011 296.352 109C298.968 109.011 301.492 109.971 303.46 111.705C304.617 112.721 305.553 113.966 306.212 115.361C306.78 116.838 307.545 118.231 308.485 119.5C309.551 120.63 310.841 121.521 312.272 122.116C313.656 122.707 314.998 123.394 316.287 124.173C319.963 126.709 321.78 131.204 320.908 135.6C320.811 136.065 320.672 136.52 320.491 136.959C320.415 137.238 320.34 137.391 320.314 137.378Z" fill="#455A64"/>
<path d="M319.166 123.881C319.102 123.881 318.888 123.437 318.231 122.789C317.255 121.92 316.136 121.228 314.924 120.745C314.06 120.367 313.217 119.943 312.399 119.475C311.479 118.966 310.678 118.264 310.05 117.418C308.699 115.514 308.27 112.974 306.477 111.222C304.798 109.575 302.631 108.523 300.304 108.226C298.386 107.993 296.442 108.149 294.585 108.683C292.862 109.226 291.175 109.879 289.535 110.638C289.911 110.303 290.337 110.029 290.797 109.825C291.96 109.159 293.192 108.622 294.471 108.226C296.381 107.611 298.399 107.407 300.392 107.629C302.869 107.902 305.182 109.006 306.957 110.765C308.901 112.695 309.331 115.336 310.555 117.113C311.797 118.582 313.38 119.721 315.163 120.427C316.402 120.96 317.523 121.738 318.459 122.713C318.706 122.987 318.914 123.295 319.077 123.627C319.14 123.767 319.191 123.868 319.166 123.881Z" fill="#455A64"/>
<path d="M315.1 141.987C315.1 141.047 316.097 138.813 317.019 138.648C319.468 138.19 323.912 138.279 324.114 144.564C324.392 153.147 315.757 151.662 315.744 151.421C315.731 151.179 315.226 145.237 315.1 141.987Z" fill="#B78876"/>
<path d="M318.294 148.069C318.294 148.069 318.446 148.17 318.698 148.285C319.056 148.425 319.452 148.425 319.809 148.285C320.913 147.534 321.527 146.242 321.413 144.907C321.414 144.167 321.246 143.437 320.92 142.774C320.746 142.233 320.315 141.814 319.771 141.657C319.414 141.582 319.052 141.767 318.9 142.101C318.799 142.342 318.9 142.507 318.812 142.533C318.724 142.558 318.623 142.393 318.686 142.038C318.72 141.819 318.832 141.621 319.001 141.479C319.231 141.298 319.519 141.212 319.809 141.238C320.527 141.351 321.135 141.832 321.413 142.507C321.804 143.237 322.007 144.053 322.006 144.882C322.006 146.621 321.185 148.272 319.961 148.691C319.499 148.843 318.994 148.777 318.585 148.513C318.32 148.285 318.269 148.094 318.294 148.069Z" fill="#AA6550"/>
<path d="M322.032 150.189C322.158 150.011 322.448 149.922 322.865 150.1C323.421 150.404 323.825 150.929 323.976 151.548C324.261 152.574 324.004 153.676 323.294 154.468C322.413 155.431 321.102 155.872 319.822 155.636C318.554 155.374 317.506 154.479 317.045 153.262C316.676 152.345 316.718 151.314 317.158 150.43C317.451 149.819 318.012 149.382 318.673 149.249C319.166 149.249 319.406 149.427 319.431 149.643C319.426 149.883 319.393 150.122 319.33 150.354C319.293 150.619 319.293 150.889 319.33 151.154C319.415 151.45 319.556 151.726 319.746 151.967C319.904 152.18 320.133 152.328 320.39 152.386C320.642 152.422 320.899 152.391 321.135 152.297C321.367 152.203 321.546 152.013 321.628 151.776C321.943 151.205 321.792 150.57 322.032 150.189Z" fill="#E0E0E0"/>
<path d="M279.826 178.503L290.924 176.561L317.272 175.608L329.203 176.205C329.203 176.205 306.263 192.203 279.826 178.503Z" fill="#FD6A7E"/>
<path d="M352.445 133.759C352.445 133.759 352.445 133.48 352.369 132.947C352.293 132.413 352.293 131.588 352.218 130.56C352.218 130.039 352.218 129.455 352.117 128.807C352.016 128.16 351.915 127.461 351.801 126.712C351.687 125.963 351.549 125.138 351.41 124.262C351.245 123.341 351.03 122.429 350.766 121.532C349.601 116.837 347.736 112.347 345.236 108.213C341.973 102.713 337.686 97.8981 332.611 94.0304L330.465 92.4179C329.707 91.9227 328.912 91.4656 328.129 90.9704C327.346 90.4752 326.564 89.9546 325.705 89.561L323.117 88.2913L321.855 87.6565L320.466 87.1613L317.625 86.1709C316.678 85.8535 315.681 85.6504 314.696 85.3837C313.711 85.0896 312.707 84.8605 311.691 84.6981C309.607 84.3055 307.498 84.0636 305.379 83.9744C304.306 83.9744 303.233 83.822 302.147 83.8474L298.852 84.0125C298.309 84.0125 297.753 84.0125 297.198 84.1267L295.544 84.3807C294.433 84.5584 293.309 84.6981 292.198 84.9266C287.649 85.9639 283.249 87.581 279.106 89.7388C278.058 90.3102 277.061 91.0085 276.026 91.5926C275.521 91.9227 274.978 92.202 274.486 92.5702L273.034 93.6749C271.047 95.1446 269.166 96.7526 267.403 98.487C265.656 100.301 264.032 102.231 262.542 104.264L261.393 105.8L260.396 107.438L259.399 109.089C259.055 109.635 258.747 110.203 258.477 110.79C257.922 111.958 257.353 113.139 256.798 114.32C256.242 115.501 255.902 116.771 255.447 118.015C252.03 128.226 252.03 139.28 255.447 149.491C255.889 150.76 256.343 152.03 256.785 153.186C257.227 154.341 257.909 155.547 258.477 156.715L258.894 157.579L259.399 158.417L260.396 160.067L261.393 161.705L262.53 163.242C264.02 165.282 265.648 167.216 267.403 169.031C269.171 170.755 271.047 172.363 273.021 173.844L274.486 174.948C274.982 175.296 275.496 175.619 276.026 175.913C277.061 176.535 278.058 177.183 279.106 177.78C281.202 178.87 283.365 179.825 285.583 180.636C287.744 181.431 289.954 182.084 292.198 182.592C293.309 182.82 294.433 182.947 295.544 183.138L297.198 183.392C297.753 183.468 298.309 183.392 298.852 183.493L302.147 183.671C303.233 183.671 304.306 183.582 305.379 183.544C307.497 183.448 309.606 183.207 311.691 182.82C312.704 182.646 313.707 182.417 314.696 182.135C315.681 181.868 316.678 181.665 317.625 181.347L320.428 180.319L321.804 179.811L323.067 179.189L325.592 177.919C326.45 177.526 327.208 176.967 328.016 176.51C328.824 176.053 329.594 175.57 330.351 175.075L332.497 173.463C337.573 169.595 341.86 164.78 345.122 159.28C347.618 155.144 349.483 150.654 350.652 145.961C350.917 145.059 351.132 144.144 351.296 143.218C351.435 142.355 351.574 141.542 351.687 140.781C351.801 140.019 351.94 139.32 352.003 138.686C352.066 138.051 352.079 137.416 352.104 136.933C352.18 135.892 352.23 135.105 352.256 134.546C352.281 133.988 352.331 133.734 352.331 133.734C352.331 133.734 352.331 134.013 352.331 134.546C352.331 135.08 352.331 135.905 352.243 136.933C352.243 137.467 352.243 138.051 352.167 138.698C352.091 139.346 351.99 140.044 351.877 140.806C351.763 141.568 351.65 142.393 351.523 143.269C351.368 144.2 351.157 145.12 350.892 146.024C349.776 150.763 347.936 155.299 345.438 159.471C342.186 165.028 337.899 169.904 332.813 173.831L330.642 175.469C329.884 175.977 329.089 176.434 328.293 176.929C327.498 177.424 326.715 177.957 325.844 178.364L323.243 179.633L321.981 180.268L320.579 180.776L317.764 181.817C316.805 182.147 315.807 182.35 314.81 182.63C313.81 182.921 312.794 183.154 311.767 183.328C309.682 183.724 307.573 183.979 305.455 184.09C304.369 184.09 303.271 184.23 302.172 184.217L298.852 184.052C298.296 184.052 297.728 184.052 297.173 183.95L295.494 183.696C294.383 183.506 293.246 183.379 292.123 183.15C287.511 182.13 283.048 180.521 278.841 178.364C277.781 177.78 276.771 177.094 275.71 176.484C275.193 176.154 274.65 175.875 274.157 175.494L272.68 174.389C270.672 172.895 268.765 171.266 266.974 169.514C265.199 167.677 263.549 165.722 262.037 163.661L260.888 162.112L259.866 160.448L258.856 158.772L258.351 157.934L257.922 157.045L256.217 153.49C255.763 152.221 255.308 150.951 254.841 149.745C251.382 139.393 251.382 128.189 254.841 117.837L256.205 114.028L257.909 110.473C258.177 109.872 258.494 109.295 258.856 108.746L259.866 107.07L260.876 105.407L262.037 103.858C264.966 99.7185 268.559 96.0972 272.668 93.1416L274.145 92.0243C274.637 91.656 275.193 91.3767 275.698 91.0466C276.758 90.4117 277.768 89.7769 278.829 89.1674C280.946 88.05 283.14 87.0868 285.394 86.2852C287.588 85.5082 289.832 84.8804 292.11 84.4061C293.234 84.1775 294.37 84.0379 295.481 83.8601L297.16 83.6062C297.716 83.53 298.284 83.53 298.839 83.4919L302.16 83.3395C303.258 83.3395 304.356 83.4284 305.429 83.4665C307.548 83.5774 309.657 83.8319 311.742 84.2283C312.771 84.3903 313.788 84.6236 314.785 84.9266C315.769 85.1933 316.779 85.4091 317.739 85.7266L320.554 86.7677L321.943 87.2883L323.269 87.9231L325.869 89.1928C326.74 89.5864 327.511 90.1578 328.319 90.6149C329.127 91.072 329.909 91.5799 330.667 92.0877L332.826 93.7129C337.94 97.6329 342.249 102.514 345.514 108.086C348.007 112.26 349.846 116.795 350.968 121.532C351.236 122.436 351.447 123.356 351.599 124.287C351.725 125.163 351.852 125.976 351.953 126.75C352.054 127.525 352.192 128.211 352.243 128.858C352.293 129.506 352.243 130.128 352.319 130.61C352.319 131.651 352.382 132.439 352.407 133.01C352.432 133.581 352.445 133.759 352.445 133.759Z" fill="#263238"/>
<path d="M508.664 453.648C502.131 447.297 492.839 444.747 484.019 446.884C475.199 449.021 468.067 455.551 465.103 464.203L468.257 476.516C469.455 472.327 472.041 468.265 475.99 466.546C479.939 464.827 484.897 465.769 489.123 467.323C493.349 468.876 497.499 470.939 501.978 471.219C506.456 471.499 511.54 469.347 512.877 465.018C514.139 460.956 511.704 456.615 508.664 453.648Z" fill="#FD6A7E"/>
<g opacity="0.3">
<path d="M508.664 453.648C502.131 447.297 492.839 444.747 484.019 446.884C475.199 449.021 468.067 455.551 465.103 464.203L468.257 476.516C469.455 472.327 472.041 468.265 475.99 466.546C479.939 464.827 484.897 465.769 489.123 467.323C493.349 468.876 497.499 470.939 501.978 471.219C506.456 471.499 511.54 469.347 512.877 465.018C514.139 460.956 511.704 456.615 508.664 453.648Z" fill="black"/>
</g>
<path d="M432.707 494.698C426.122 488.331 426.399 477.394 429.73 468.851C433.06 460.307 440.188 453.737 448.186 449.421C464.019 441.026 482.788 440.412 499.127 447.753C491.112 448.102 483.791 452.443 479.586 459.339C475.978 465.387 475.17 472.721 472.193 479.113C465.21 494.057 447.881 500.896 432.707 494.698Z" fill="#FD6A7E"/>
<path d="M429.54 456.78C422.248 448.097 421.277 434.154 422.349 422.835C423.422 411.516 426.02 400.095 424.254 388.865C423.207 382.206 420.646 375.839 419.788 369.155C418.93 362.47 420.142 354.907 425.276 350.591C431.18 345.638 440.414 346.771 446.596 351.469C452.778 356.167 456.297 363.438 458.896 370.733C464.598 386.751 466.692 404.513 462.012 420.874C457.332 437.236 446.318 451.84 430.171 456.78" fill="#FD6A7E"/>
<path d="M426.033 528.032C426.014 527.697 426.014 527.361 426.033 527.026C426.033 526.376 426.033 525.409 426.096 524.161C426.184 521.614 426.424 518.062 426.979 513.644C427.623 508.459 428.558 503.315 429.78 498.237C431.285 492.003 433.628 486.005 436.743 480.412C439.849 474.816 443.666 469.654 448.097 465.056C451.704 461.298 455.701 457.943 460.019 455.049C461.835 453.775 463.602 452.808 465.065 451.916C466.528 451.025 467.979 450.414 469.089 449.879L471.713 448.759C472.014 448.616 472.326 448.501 472.647 448.415C472.362 448.585 472.067 448.738 471.764 448.873L469.241 450.083C468.156 450.656 466.819 451.356 465.279 452.209C463.74 453.062 462.05 454.119 460.233 455.405C450.751 461.946 442.883 470.597 437.235 480.692C430.537 492.52 428.707 504.96 427.37 513.682C426.765 518.087 426.462 521.678 426.298 524.161C426.235 525.358 426.172 526.313 426.134 527.013C426.136 527.355 426.102 527.697 426.033 528.032Z" fill="#263238"/>
<path d="M363.171 422.53C349.685 430.742 349.723 438.216 351.981 445.27C354.239 452.324 362.515 457.226 369.365 454.577C373.25 453.088 376.064 449.688 378.461 446.263C380.857 442.838 383.116 439.184 386.471 436.726C389.827 434.269 394.722 433.339 398.09 435.771" fill="#FD6A7E"/>
<path d="M402.367 438.076L389.449 433.174L394.596 433.785C395.986 433.929 397.316 434.434 398.456 435.249L402.367 438.076Z" fill="black"/>
<g opacity="0.3">
<path d="M363.171 422.53C349.685 430.742 349.723 438.216 351.981 445.27C354.239 452.324 362.515 457.226 369.365 454.577C373.25 453.088 376.064 449.688 378.461 446.263C380.857 442.838 383.116 439.184 386.471 436.726C388.788 434.998 391.649 434.179 394.52 434.422L363.171 422.53Z" fill="black"/>
</g>
<path d="M353.079 431.531C356.598 426.617 365.316 425.165 370.816 427.648C376.316 430.131 380.34 434.957 383.948 439.82C387.556 444.684 391.064 449.803 396.059 453.19C401.055 456.576 408.031 457.773 413.077 454.386C416.283 451.968 418.363 448.327 418.83 444.315C419.269 440.344 419.005 436.326 418.048 432.448C416.849 426.744 414.907 420.785 410.39 417.169C405.344 413.133 398.343 412.929 391.909 413.146C384.516 413.388 377.023 413.948 370.084 416.533C363.146 419.117 356.081 424.694 353.142 431.544" fill="#FD6A7E"/>
<path d="M414.831 517.132C414.814 517.031 414.814 516.928 414.831 516.827C414.831 516.598 414.831 516.305 414.831 515.948C414.831 515.133 414.767 514 414.717 512.574C414.641 509.595 414.515 505.355 414.364 500.147C414.212 494.94 413.985 488.688 413.619 481.736C413.254 474.784 412.724 467.208 411.677 459.276C411.243 455.401 410.496 451.568 409.444 447.816C408.373 444.373 406.992 441.036 405.319 437.847C403.815 434.95 402.072 432.185 400.108 429.583C398.373 427.316 396.467 425.188 394.406 423.217C391.397 420.417 387.997 418.079 384.314 416.278C383.658 415.972 383.052 415.679 382.56 415.463L381.299 414.954L380.491 414.623C380.396 414.591 380.307 414.544 380.227 414.483C380.325 414.499 380.422 414.525 380.517 414.559L381.337 414.826L382.687 415.297C383.216 415.488 383.797 415.769 384.465 416.061C388.218 417.798 391.685 420.104 394.747 422.899C396.847 424.861 398.788 426.989 400.55 429.265C402.554 431.872 404.331 434.65 405.861 437.567C407.57 440.784 408.976 444.156 410.062 447.638C411.126 451.389 411.886 455.222 412.333 459.097C413.38 467.055 413.872 474.669 414.225 481.609C414.578 488.548 414.73 494.787 414.843 500.033C414.957 505.278 414.995 509.531 415.007 512.472V515.846C415.007 516.203 415.007 516.496 415.007 516.725C414.97 516.869 414.911 517.007 414.831 517.132Z" fill="#263238"/>
<path d="M419.687 523.282C419.046 521.376 418.552 519.422 418.211 517.438C417.272 512.016 417.064 506.491 417.593 501.013C418.414 492.903 420.136 484.912 422.728 477.19C425.491 468.43 429.25 459.072 432.467 449.001C434.047 444.113 435.336 439.134 436.327 434.091C437.245 429.386 437.906 424.634 438.308 419.856C438.925 411.761 439.069 403.636 438.737 395.524C438.51 388.597 438.144 382.995 437.917 379.112L437.652 374.655C437.652 374.171 437.652 373.789 437.652 373.496C437.635 373.365 437.635 373.233 437.652 373.102C437.684 373.227 437.705 373.355 437.715 373.484C437.715 373.777 437.778 374.159 437.828 374.642C437.917 375.699 438.043 377.189 438.194 379.099C438.497 382.919 438.926 388.572 439.216 395.511C439.608 403.642 439.507 411.789 438.913 419.907C438.547 424.705 437.915 429.478 437.021 434.205C436.033 439.276 434.74 444.28 433.148 449.192C429.931 459.288 426.159 468.634 423.371 477.356C420.729 485.036 418.931 492.987 418.01 501.064C417.455 506.505 417.599 511.996 418.439 517.4C418.767 519.31 419.069 520.787 419.334 521.767C419.448 522.238 419.536 522.62 419.612 522.9L419.687 523.282Z" fill="#263238"/>
<path d="M453.118 529.432H389.802L388.351 517.132H453.118V529.432Z" fill="#455A64"/>
<path d="M396.589 528.031L404.511 564.93H438.913L446.319 528.031H396.589Z" fill="#455A64"/>
<path d="M453.118 529.432C453.118 529.598 439.241 529.699 422.021 529.649C404.801 529.598 390.937 529.419 390.937 529.254C390.937 529.088 404.814 528.986 422.021 529.037C439.229 529.088 453.118 529.267 453.118 529.432Z" fill="#455A64"/>
<path d="M442.244 547.64C440.523 546.34 438.65 545.258 436.668 544.418C434.507 543.562 432.214 543.097 429.893 543.043C427.045 543.051 424.221 543.573 421.555 544.584C418.666 545.577 415.966 546.723 413.342 547.347C411.012 547.856 408.609 547.929 406.252 547.563C404.666 547.332 403.128 546.842 401.698 546.112C401.316 545.9 400.95 545.662 400.6 545.399C400.361 545.22 400.247 545.119 400.26 545.106C400.272 545.093 400.79 545.424 401.799 545.895C403.235 546.54 404.756 546.969 406.315 547.169C408.622 547.461 410.961 547.345 413.228 546.825C415.751 546.188 418.451 545.03 421.365 544.036C424.094 542.998 426.99 542.48 429.906 542.508C432.29 542.581 434.639 543.104 436.832 544.049C438.309 544.663 439.697 545.477 440.957 546.468C441.302 546.736 441.631 547.025 441.941 547.334C442.155 547.512 442.256 547.627 442.244 547.64Z" fill="#263238"/>
<path d="M441.765 550.11C440.107 548.848 438.312 547.78 436.416 546.927C434.335 546.068 432.115 545.606 429.868 545.564C427.117 545.572 424.388 546.067 421.807 547.029C419.019 547.971 416.395 549.066 413.897 549.741C411.686 550.384 409.383 550.646 407.085 550.517C405.531 550.422 404.012 550.011 402.619 549.308C402.245 549.105 401.887 548.875 401.547 548.62C401.32 548.455 401.206 548.353 401.219 548.34C401.231 548.327 401.749 548.646 402.72 549.091C404.109 549.696 405.598 550.033 407.11 550.084C409.354 550.155 411.595 549.858 413.746 549.206C416.193 548.505 418.792 547.398 421.618 546.456C424.263 545.474 427.062 544.983 429.881 545.004C433.758 545.121 437.493 546.501 440.528 548.938C440.859 549.2 441.175 549.481 441.474 549.779C441.676 549.982 441.777 550.097 441.765 550.11Z" fill="white"/>
<path d="M442.875 545.195C441.1 543.846 439.178 542.706 437.148 541.795C434.944 540.832 432.593 540.259 430.196 540.102C427.257 540.042 424.335 540.561 421.593 541.63C418.821 542.734 415.986 543.67 413.103 544.431C410.678 544.859 408.198 544.859 405.773 544.431C404.138 544.173 402.552 543.666 401.068 542.929C400.669 542.725 400.289 542.486 399.932 542.216C399.68 542.025 399.554 541.923 399.566 541.91C399.579 541.897 400.134 542.241 401.168 542.712C402.66 543.347 404.231 543.775 405.836 543.985C408.212 544.336 410.629 544.288 412.989 543.845C415.84 543.049 418.649 542.106 421.404 541.019C424.217 539.921 427.22 539.406 430.234 539.504C434.362 539.839 438.306 541.374 441.588 543.922C441.942 544.198 442.279 544.495 442.597 544.813C442.774 545.068 442.888 545.182 442.875 545.195Z" fill="white"/>
<path d="M453.674 529.483C453.674 529.649 439.431 529.789 421.87 529.789C404.31 529.789 390.054 529.649 390.054 529.483C390.054 529.318 404.297 529.177 421.87 529.177C439.443 529.177 453.674 529.318 453.674 529.483Z" fill="#263238"/>
<path d="M539.391 564.16C539.391 564.3 418.766 564.42 270.013 564.42C121.259 564.42 0.608398 564.3 0.608398 564.16C0.608398 564.02 121.208 563.9 270.013 563.9C418.817 563.9 539.391 564 539.391 564.16Z" fill="#263238"/>
<path d="M166.369 551.381L170.17 495.243L139.889 498.093L142.415 552.521L157.303 553.357L166.369 551.381Z" fill="#B78876"/>
<path d="M167.241 548.595V550.267C167.241 550.267 194.82 561.667 195.022 566.974L140.028 566.138L141.089 547.733C149.209 551.685 157.758 552.243 167.241 548.595Z" fill="#FD6A7E"/>
<g opacity="0.6">
<path d="M146.569 553.712C145.476 554.03 144.792 555.119 144.978 556.245C145.253 557.374 146.368 558.084 147.504 557.854C148.67 557.511 149.393 556.344 149.183 555.143C148.772 554.007 147.541 553.398 146.392 553.763" fill="white"/>
</g>
<g opacity="0.6">
<path d="M140.066 566.1L140.318 561.692L192.963 564.099C192.963 564.099 195.401 565.213 195.097 566.936L140.066 566.1Z" fill="white"/>
</g>
<path d="M167.418 550.381C167.418 550.659 166.066 550.761 164.728 551.647C163.389 552.534 162.67 553.611 162.43 553.497C162.19 553.383 162.606 551.837 164.235 550.837C165.864 549.836 167.481 550.14 167.418 550.381Z" fill="#263238"/>
<path d="M173.15 552.863C173.214 553.129 172.039 553.573 171.105 554.7C170.17 555.827 169.905 557.018 169.627 557.005C169.349 556.993 169.211 555.46 170.398 554.079C171.585 552.699 173.15 552.61 173.15 552.863Z" fill="#263238"/>
<path d="M176.32 559.843C176.08 559.843 175.727 558.576 176.434 557.081C177.141 555.587 178.416 555.042 178.517 555.27C178.618 555.498 177.848 556.271 177.255 557.487C176.661 558.703 176.547 559.817 176.32 559.843Z" fill="#263238"/>
<path d="M104.241 513.774L138.235 469.01L111.388 454.659L83.6073 501.487L95.5784 510.405L104.241 513.774Z" fill="#B78876"/>
<path d="M106.489 511.925L105.58 513.28C105.58 513.28 122.324 538.069 119.634 542.667L74.1744 511.595L85.0974 496.851C89.7127 504.748 97.5173 510.248 106.489 511.925Z" fill="#FD6A7E"/>
<g opacity="0.6">
<path d="M86.4234 504.781C85.3255 504.448 84.1529 504.992 83.6958 506.047C83.326 507.148 83.8814 508.345 84.9586 508.771C86.1164 509.135 87.3613 508.56 87.8377 507.441C88.1283 506.265 87.4348 505.07 86.2719 504.743" fill="white"/>
</g>
<g opacity="0.6">
<path d="M74.1996 511.532L76.8262 507.985L119.407 539.057C119.407 539.057 120.834 541.324 119.634 542.603L74.1996 511.532Z" fill="white"/>
</g>
<path d="M105.655 513.533C105.491 513.749 104.317 513.09 102.738 513.065C101.16 513.039 99.9476 513.571 99.7961 513.343C99.6445 513.115 100.857 512.077 102.776 512.077C104.696 512.077 105.832 513.343 105.655 513.533Z" fill="#263238"/>
<path d="M109.077 518.752C108.976 519.005 107.815 518.752 106.375 519.157C104.935 519.563 104.077 520.424 103.849 520.272C103.622 520.12 104.342 518.752 106.085 518.258C107.827 517.764 109.216 518.6 109.077 518.752Z" fill="#263238"/>
<path d="M107.891 526.327C107.663 526.238 108.105 524.921 109.507 524.085C110.909 523.249 112.272 523.477 112.247 523.73C112.222 523.983 111.123 524.199 109.987 524.895C108.85 525.592 108.131 526.453 107.891 526.327Z" fill="#263238"/>
<path d="M156.772 321.127C156.772 321.127 183.038 415.063 181.27 421.814C179.502 428.565 132.843 497.915 131.517 498.346C130.191 498.777 93.3053 476.711 93.3053 476.711L131.517 413.53C131.517 413.53 110.239 367.841 104.039 347.663C97.8386 327.485 96.639 326.447 100.49 308.067C102.827 296.921 113.244 281.999 113.244 281.999L114.924 276.844H157.972L156.772 321.127Z" fill="#263238"/>
<path d="M185.122 276.831L188.241 289.333C193.557 293.133 201.525 311.057 201.967 318.226C202.409 325.395 204.127 354.858 204.177 375.226C204.253 398.837 178.088 539.057 178.088 539.057H131.088L147.617 316.491L151.759 276.831H185.122Z" fill="#263238"/>
<path d="M158.275 305.002C158.284 305.181 158.309 305.359 158.351 305.534C158.427 305.914 158.515 306.433 158.641 307.092C158.919 308.485 159.323 310.487 159.828 313.045C160.927 318.213 162.569 325.712 164.728 334.845C166.887 343.977 169.514 354.947 172.103 367.145C173.365 373.237 174.628 379.659 175.689 386.36C176.843 393.254 177.514 400.221 177.697 407.209C177.81 414.366 177.255 421.447 174.767 427.755C172.419 433.835 169.686 439.758 166.584 445.488C160.725 456.47 154.803 466.021 149.613 473.874C144.423 481.727 139.927 487.871 136.707 492C135.065 494.065 133.803 495.661 132.919 496.687L131.896 497.89C131.771 498.021 131.661 498.166 131.568 498.321C133.469 496.363 135.269 494.308 136.96 492.165C140.255 488.048 144.814 481.917 150.055 474.077C155.295 466.236 161.255 456.711 167.165 445.716C170.304 439.993 173.062 434.069 175.424 427.983C177.949 421.649 178.53 414.391 178.404 407.209C178.221 400.191 177.542 393.194 176.371 386.271C175.348 379.558 174.047 373.136 172.747 367.031C170.12 354.833 167.43 343.927 165.233 334.756C163.036 325.585 161.306 318.15 160.182 313.007C159.614 310.474 159.184 308.46 158.919 307.067L158.553 305.534C158.48 305.347 158.387 305.168 158.275 305.002Z" fill="#455A64"/>
<path d="M102.751 310.221C103.261 310.474 103.799 310.665 104.355 310.791C105.843 311.206 107.364 311.494 108.9 311.652C119.29 312.745 129.495 308.323 135.823 299.986C136.778 298.763 137.623 297.457 138.348 296.085C138.641 295.597 138.871 295.073 139.03 294.527C138.917 294.451 137.919 296.68 135.495 299.695C129.106 307.704 119.169 312.009 108.976 311.183C105.087 310.867 102.789 310.081 102.751 310.221Z" fill="#455A64"/>
<path d="M182.609 290.714C182.609 290.714 182.609 291.094 182.823 291.753C183.076 292.676 183.388 293.581 183.758 294.463C186.201 300.365 190.232 305.47 195.4 309.207C196.177 309.771 196.986 310.287 197.825 310.753C198.117 310.955 198.442 311.105 198.785 311.196C198.785 311.107 197.522 310.322 195.678 308.84C190.755 304.963 186.817 299.971 184.187 294.273C183.177 292.095 182.71 290.676 182.609 290.714Z" fill="#455A64"/>
<path d="M106.388 111.291C104.355 108.91 103.841 105.579 105.061 102.693C106.282 99.8064 109.026 97.8623 112.146 97.674C111.184 94.7665 111.786 91.5668 113.739 89.2112C115.691 86.8556 118.718 85.678 121.743 86.0967C121.944 83.0308 123.614 80.2527 126.224 78.6443C128.834 77.0358 132.059 76.7967 134.876 78.0027C136.687 75.807 139.417 74.5855 142.256 74.6998C145.095 74.8141 147.717 76.2511 149.348 78.5853C150.914 78.8408 152.405 79.4375 153.717 80.3333C155.162 80.0802 156.65 80.3023 157.96 80.9667C159.57 81.8574 161.042 82.9797 162.329 84.298C164.513 86.35 166.812 88.5413 167.582 91.442C168.453 94.672 167.304 98.3707 168.933 101.297C169.726 102.345 170.427 103.459 171.029 104.628C171.85 106.984 170.259 109.517 170.448 112.013C170.638 114.508 172.822 116.94 172.557 119.613C172.181 121.513 171.032 123.169 169.388 124.185C167.759 125.184 166.24 126.352 164.854 127.669C163.844 128.821 163.2 130.202 162.203 131.405C159.168 134.741 154.073 135.14 150.56 132.317C148.21 134.106 145.142 134.645 142.326 133.761C139.557 132.874 136.951 131.539 134.611 129.809C133.548 131.251 131.829 132.055 130.044 131.945C128.259 131.835 126.651 130.826 125.772 129.265C124.95 131.173 122.945 132.283 120.897 131.963C118.91 131.614 117.027 130.817 115.392 129.632C112.184 127.643 108.585 125.034 108.509 121.247C108.509 118.929 109.772 116.535 108.901 114.394C108.232 113.233 107.384 112.185 106.388 111.291Z" fill="#263238"/>
<path d="M177.975 96.192C174.069 90.7273 168.051 87.1641 161.394 86.3753C152.239 84.8173 142.061 86.3753 134.624 91.9487C127.805 97.0153 124.016 105.489 122.956 113.976C122.589 116.965 123.486 119.841 124.319 122.729C125.608 126.082 127.995 128.895 131.088 130.709C133.752 132.115 134.876 131.215 137.111 129.227C138.394 127.899 139.391 126.321 140.041 124.591C143.274 117.51 146.974 110.493 152.416 104.932C157.859 99.3713 165.296 95.394 173.062 95.6347" fill="#FD6A7E"/>
<path d="M137.591 110.201C138.525 107.668 138.121 104.843 138.462 102.145C139.232 96.23 143.829 91.2267 149.385 89.048C155.057 87.0603 161.239 87.0961 166.887 89.1493C171.157 90.4317 174.993 92.8682 177.974 96.192C181.794 100.821 183.144 107.018 181.598 112.823L151.393 108.808C148.726 111.34 145.663 113.415 142.326 114.951C141.346 115.413 140.26 115.601 139.182 115.496C138.088 115.381 137.163 114.632 136.821 113.583C136.738 112.404 137.006 111.228 137.591 110.201Z" fill="#263238"/>
<path d="M167.632 97.484L141.392 103.425C138.847 103.622 136.877 105.741 136.859 108.301L137.907 165.441C137.96 169.337 139.291 173.108 141.695 176.169L144.221 179.387C146.931 182.845 151.198 184.699 155.568 184.316C159.937 183.933 163.819 181.365 165.89 177.487C166.144 177.01 166.339 176.504 166.471 175.979C166.577 175.563 166.653 175.14 166.698 174.713C167.117 171.849 167.235 168.95 167.052 166.061C167.241 160.995 167.292 158.879 167.292 158.93C167.292 158.981 178.05 157.423 180.639 143.464C181.902 136.523 181.902 125.085 181.523 115.724C181.296 107.275 176.017 96.8 167.632 97.484Z" fill="#B78876"/>
<path d="M176.156 124.401C176.143 125.374 175.359 126.16 174.388 126.174C173.926 126.202 173.471 126.039 173.131 125.724C172.79 125.408 172.592 124.967 172.583 124.502C172.596 123.53 173.382 122.748 174.35 122.741C174.811 122.714 175.263 122.875 175.604 123.187C175.944 123.5 176.143 123.938 176.156 124.401Z" fill="#263238"/>
<path d="M178.984 121.589C178.757 121.817 177.419 120.765 175.499 120.727C173.58 120.689 172.128 121.614 171.926 121.361C171.723 121.107 172.064 120.841 172.696 120.411C173.54 119.85 174.538 119.567 175.55 119.6C176.556 119.62 177.529 119.962 178.328 120.575C178.909 121.057 179.073 121.487 178.984 121.589Z" fill="#263238"/>
<path d="M157.884 124.401C157.863 125.376 157.076 126.161 156.103 126.174C155.641 126.198 155.189 126.034 154.849 125.719C154.509 125.405 154.31 124.966 154.298 124.502C154.311 123.526 155.104 122.741 156.078 122.741C156.539 122.714 156.991 122.875 157.331 123.187C157.672 123.5 157.871 123.938 157.884 124.401Z" fill="#263238"/>
<path d="M160.018 121.449C159.791 121.677 158.465 120.639 156.533 120.588C154.601 120.537 153.161 121.475 152.959 121.234C152.757 120.993 153.098 120.715 153.729 120.271C154.58 119.715 155.581 119.437 156.596 119.473C157.597 119.496 158.566 119.838 159.361 120.449C159.942 120.867 160.132 121.348 160.018 121.449Z" fill="#263238"/>
<path d="M166.648 135.978C167.67 135.68 168.727 135.518 169.792 135.497C170.284 135.497 170.752 135.37 170.853 135.028C170.897 134.521 170.796 134.011 170.562 133.559C170.12 132.292 169.678 131.025 169.198 129.759C167.317 124.35 165.966 119.917 166.18 119.841C166.395 119.765 168.1 124.084 169.969 129.493C170.423 130.823 170.865 132.102 171.231 133.293C171.531 133.893 171.603 134.581 171.433 135.231C171.28 135.579 170.979 135.839 170.613 135.94C170.335 136.004 170.051 136.034 169.767 136.029C168.729 136.141 167.681 136.124 166.648 135.978Z" fill="#263238"/>
<path d="M167.38 158.867C160.792 158.809 154.348 156.919 148.767 153.407C148.767 153.407 153.212 163.224 167.241 162.274L167.38 158.867Z" fill="#AA6550"/>
<path d="M165.713 140.614C164.991 139.653 163.826 139.136 162.632 139.246C161.769 139.293 160.964 139.696 160.409 140.361C159.864 141.008 159.778 141.928 160.195 142.666C160.814 143.396 161.813 143.676 162.72 143.375C163.648 143.077 164.507 142.595 165.246 141.957C165.468 141.808 165.66 141.619 165.814 141.399C165.96 141.181 165.96 140.896 165.814 140.677" fill="#AA6550"/>
<path d="M160.94 137.169C161.255 137.169 161.205 139.259 162.947 140.791C164.69 142.324 166.938 142.159 166.95 142.451C166.963 142.742 166.445 142.843 165.498 142.843C164.272 142.835 163.089 142.385 162.165 141.577C161.27 140.81 160.708 139.724 160.599 138.549C160.548 137.663 160.788 137.156 160.94 137.169Z" fill="#263238"/>
<path d="M160.497 115.61C160.295 116.129 158.376 115.838 156.103 116.041C153.83 116.243 151.986 116.826 151.696 116.357C151.57 116.129 151.898 115.635 152.656 115.091C154.683 113.884 157.15 113.679 159.348 114.533C160.131 114.939 160.586 115.369 160.497 115.61Z" fill="#263238"/>
<path d="M178.644 113.115C178.29 113.545 176.977 113.115 175.373 112.988C173.769 112.861 172.418 113.203 172.128 112.735C171.989 112.507 172.216 112.076 172.822 111.671C173.622 111.184 174.553 110.958 175.487 111.025C176.426 111.068 177.33 111.4 178.075 111.975C178.631 112.443 178.795 112.899 178.644 113.115Z" fill="#263238"/>
<path d="M132.716 106.186C135.343 98.1173 147.125 87.0087 155.56 87.6547L168.971 95.8753C168.05 100.552 164.661 104.353 160.131 105.793C157.745 106.515 154.866 106.693 153.439 108.732C152.012 110.771 152.795 113.887 151.431 116.053C149.537 119.043 144.435 118.865 143.008 122.095C142.389 123.514 142.692 125.211 142.048 126.617C141.19 128.479 136.429 130.835 134.472 130.189C132.514 129.543 132.527 126.212 131.946 124.451C131.15 122.469 131.065 120.27 131.706 118.232C132.527 114.28 131.466 110.049 132.716 106.186Z" fill="#263238"/>
<path d="M127.476 100.157L128.511 104.615C128.466 101.434 129.268 98.2991 130.835 95.5333C134.207 90.4667 141.619 86.9833 147.466 85.2987C153.312 83.614 160.498 84.64 166.155 86.9073C171.246 88.8323 175.624 92.2816 178.694 96.7873C182.988 102.614 183.985 111.392 181.333 112.95C179.237 106.908 175.916 99.9793 170.65 96.3567C165.369 92.5917 158.698 91.3629 152.428 93C145.609 95.014 140.419 100.803 137.401 107.25C135.93 110.554 134.784 113.995 133.979 117.523C132.998 121.665 133.028 125.985 134.068 130.113L137.477 142.083L137.553 145.972C129.256 142.894 124.13 134.217 122.753 125.452C121.377 116.687 122.362 108.2 127.476 100.157Z" fill="#FD6A7E"/>
<path d="M134.459 126.769C134.522 126.769 134.232 126.047 134.017 124.73C133.742 122.868 133.889 120.967 134.447 119.169C135.24 116.501 136.943 114.196 139.258 112.659C140.679 111.824 142.156 111.087 143.678 110.455C145.373 109.759 146.904 108.715 148.173 107.389C149.255 105.927 150.134 104.325 150.787 102.627C152.681 98.5513 156.699 95.8916 161.18 95.7487C163.054 95.7078 164.914 96.0887 166.622 96.8633C167.885 97.4207 168.428 97.8767 168.453 97.826C168.336 97.6889 168.2 97.5694 168.049 97.4713C167.632 97.1544 167.189 96.8746 166.723 96.6353C162.331 94.3458 156.988 95 153.275 98.282C151.982 99.41 150.938 100.794 150.206 102.348C149.566 103.988 148.717 105.538 147.68 106.959C146.466 108.212 145.009 109.203 143.4 109.872C141.858 110.525 140.364 111.287 138.929 112.152C134.839 114.959 132.808 119.941 133.765 124.819C133.873 125.333 134.026 125.837 134.219 126.326C134.279 126.484 134.36 126.633 134.459 126.769Z" fill="#455A64"/>
<path d="M135.734 111.759C135.734 111.759 136.038 111.253 136.757 110.493C137.852 109.527 139.104 108.756 140.457 108.213C141.291 107.82 142.238 107.402 143.197 106.832C144.262 106.252 145.185 105.443 145.9 104.463C147.403 102.361 147.882 99.5233 149.878 97.5727C151.758 95.7297 154.189 94.5552 156.798 94.2287C158.916 93.9847 161.061 94.1611 163.111 94.748C165.017 95.3564 166.882 96.0884 168.693 96.9393C168.276 96.5885 167.818 96.2907 167.329 96.0527C166.031 95.323 164.659 94.7328 163.238 94.292C161.114 93.6168 158.873 93.3925 156.659 93.6333C153.9 93.9347 151.323 95.1622 149.347 97.1167C147.188 99.2573 146.721 102.183 145.344 104.109C143.968 106.034 141.808 106.933 140.192 107.795C138.811 108.385 137.562 109.246 136.517 110.328C136.241 110.627 136.007 110.964 135.823 111.329C135.772 111.607 135.709 111.747 135.734 111.759Z" fill="#455A64"/>
<path d="M140.205 131.887C140.205 130.848 139.094 128.353 138.071 128.163C135.343 127.669 130.393 127.757 130.166 134.749C129.85 144.3 139.473 142.641 139.498 142.349C139.523 142.058 140.129 135.497 140.205 131.887Z" fill="#B78876"/>
<path d="M136.707 138.6C136.707 138.6 136.543 138.714 136.253 138.841C135.848 139.007 135.394 139.007 134.99 138.841C133.744 137.999 133.06 136.54 133.209 135.041C133.21 134.22 133.395 133.41 133.752 132.672C133.94 132.067 134.412 131.593 135.015 131.405C135.412 131.312 135.819 131.521 135.975 131.899C136.101 132.165 136.038 132.355 136.088 132.368C136.139 132.381 136.29 132.216 136.227 131.823C136.179 131.587 136.055 131.374 135.874 131.215C135.618 131.007 135.292 130.907 134.965 130.937C134.162 131.068 133.487 131.611 133.184 132.368C132.751 133.179 132.522 134.083 132.515 135.003C132.515 136.941 133.437 138.803 134.8 139.208C135.314 139.38 135.877 139.306 136.328 139.005C136.682 138.891 136.745 138.676 136.707 138.6Z" fill="#AA6550"/>
<path d="M128.701 139.398C128.59 139.058 128.441 138.731 128.259 138.423C127.956 137.777 127.514 136.839 127.059 135.585C125.786 132.028 125.161 128.269 125.216 124.489C125.267 121.883 125.538 119.286 126.024 116.725C126.514 113.781 127.275 110.889 128.297 108.086C129.444 104.997 131.054 102.101 133.07 99.498C135.252 96.7231 137.881 94.3341 140.849 92.43C146.631 88.7271 153.534 87.197 160.334 88.1107C163.279 88.4947 166.144 89.35 168.819 90.644C171.146 91.7818 173.298 93.2493 175.209 95.0013C177.985 97.5525 180.222 100.636 181.788 104.071C182.318 105.337 182.672 106.275 182.887 106.946C182.983 107.291 183.101 107.63 183.24 107.959C183.199 107.602 183.123 107.25 183.013 106.908C182.743 105.908 182.409 104.927 182.015 103.969C179.472 97.9641 174.879 93.0646 169.059 90.15C166.338 88.8021 163.417 87.9079 160.409 87.5027C153.466 86.5231 146.402 88.0688 140.495 91.86C134.598 95.6324 130.113 101.258 127.741 107.858C126.714 110.702 125.957 113.636 125.481 116.623C125.017 119.216 124.772 121.843 124.749 124.477C124.726 128.303 125.428 132.099 126.82 135.661C127.19 136.617 127.612 137.551 128.082 138.461C128.264 138.789 128.471 139.102 128.701 139.398Z" fill="#263238"/>
<path d="M132.742 141.133C132.616 140.956 132.313 140.88 131.883 141.133C131.304 141.461 130.888 142.017 130.734 142.666C130.603 143.136 130.582 143.63 130.671 144.11C130.784 144.709 131.059 145.266 131.467 145.719C132.385 146.733 133.763 147.194 135.105 146.936C136.446 146.677 137.556 145.736 138.033 144.452C138.424 143.486 138.387 142.4 137.932 141.463C137.632 140.816 137.048 140.347 136.354 140.196C135.836 140.12 135.583 140.361 135.558 140.576C135.565 140.823 135.612 141.067 135.697 141.298C135.743 141.592 135.743 141.891 135.697 142.185C135.623 142.532 135.476 142.86 135.268 143.147C135.077 143.409 134.799 143.593 134.485 143.667C134.17 143.72 133.847 143.671 133.563 143.527C133.297 143.395 133.1 143.155 133.02 142.869C132.78 142.172 132.995 141.501 132.742 141.133Z" fill="#455A64"/>
<path d="M207.473 200.971C207.473 200.971 205.894 188.304 199.77 181.882C193.646 175.46 167.203 167.29 167.203 167.29C167.203 167.29 167.026 176.638 160.889 178.829C154.399 181.147 148.085 179.919 143.324 174.383C140.483 170.918 138.59 166.771 137.831 162.35C137.831 162.35 105.807 165.327 100.832 173.75C95.8564 182.173 89.4162 214.676 89.4162 214.676L117.98 220.756L114.091 276.831H189.984L188.493 224.214L209.165 227.165L207.473 200.971Z" fill="#455A64"/>
<path d="M123.65 222.605C123.735 222.189 123.769 221.763 123.751 221.339C123.751 220.515 123.751 219.337 123.751 217.893C123.751 214.98 123.751 210.965 123.612 206.493C123.473 202.022 123.41 198.045 123.284 195.093C123.221 193.637 123.17 192.459 123.107 191.648C123.118 191.221 123.067 190.794 122.955 190.381C122.864 190.797 122.83 191.223 122.854 191.648C122.854 192.459 122.854 193.637 122.854 195.093C122.854 197.994 122.854 202.009 122.993 206.493C123.132 210.977 123.208 214.942 123.334 217.893C123.334 219.35 123.448 220.528 123.498 221.339C123.486 221.766 123.537 222.193 123.65 222.605Z" fill="#263238"/>
<path d="M195.489 199.527C195.312 199.527 193.532 205.163 191.499 212.193C189.466 219.223 187.976 225.037 188.152 225.075C189.689 220.923 191.017 216.695 192.13 212.409C194.226 205.341 195.704 199.577 195.489 199.527Z" fill="#263238"/>
<path d="M104.027 171.711C104.027 171.825 105.39 172.078 107.474 172.876C112.944 174.968 117.495 178.941 120.316 184.086C121.39 186.049 121.832 187.379 121.945 187.341C121.924 187.007 121.852 186.678 121.731 186.366C121.472 185.494 121.138 184.647 120.733 183.833C118.045 178.439 113.33 174.338 107.625 172.433C106.772 172.15 105.898 171.934 105.012 171.787C104.38 171.698 104.039 171.66 104.027 171.711Z" fill="#263238"/>
<path d="M200.237 184.453C199.591 185.694 199.14 187.027 198.899 188.405C198.449 189.732 198.21 191.121 198.192 192.522C199.291 189.957 199.982 187.234 200.237 184.453L200.237 184.453Z" fill="#263238"/>
<path d="M94.4669 215.765C94.4669 215.765 103.029 259.339 104.001 263.063C104.973 266.787 106.526 276.831 116.919 278.909C130.911 281.708 185.829 279.757 185.829 279.757L175.474 266.597L127.413 253.081L120.846 221.415L94.4669 215.765Z" fill="#B78876"/>
<path d="M222.386 207.671C222.386 207.671 214.645 233.803 211.438 245.101C208.016 257.097 200.566 284.368 184.655 279.517C172.557 275.831 176.118 260.099 176.118 260.099L188.493 224.214L198.128 225.823L207.473 201.617L222.386 207.671Z" fill="#B78876"/>
<path d="M180.336 261.226C179.905 259.282 179.905 257.267 180.336 255.323C180.829 253.231 181.684 251.242 182.862 249.446C184.387 247.26 186.075 245.194 187.913 243.265C189.756 241.31 191.445 239.213 192.964 236.995C194.175 235.159 195.235 233.227 196.133 231.219C196.73 229.866 197.245 228.479 197.674 227.064C197.864 226.554 197.991 226.022 198.053 225.481C197.805 225.961 197.598 226.461 197.434 226.975C197.055 227.951 196.512 229.344 195.704 231.016C194.766 232.974 193.681 234.859 192.459 236.653C190.923 238.83 189.235 240.896 187.408 242.834C185.548 244.798 183.858 246.917 182.356 249.167C181.142 251.027 180.286 253.097 179.831 255.273C179.526 256.741 179.505 258.255 179.768 259.731C179.85 260.128 179.964 260.518 180.109 260.897C180.273 261.112 180.336 261.239 180.336 261.226Z" fill="#AA6550"/>
<path d="M235.292 158.575C235.292 158.575 234.029 156.802 230.91 159.538C227.791 162.274 215.176 183.769 214.191 185.745C213.206 187.721 207.473 201.617 207.473 201.617L220.252 210.699L222.386 207.671C222.386 207.671 233.107 198.133 235.292 195.499C237.21 193.294 238.962 190.948 240.532 188.481C240.646 187.937 241.404 185.163 239.269 184.352C239.269 184.352 241.353 181.033 239.497 179.387C237.64 177.74 234.244 179.273 234.244 179.273L245.609 164.579C245.609 164.579 246.594 160.197 243.31 161.843C240.027 163.49 231.402 176.093 229.874 176.423C228.346 176.752 228.346 175.156 228.346 175.156C228.346 175.156 237.249 161.565 235.292 158.575Z" fill="#B78876"/>
<path d="M223.598 197.145C223.598 197.145 223.725 196.943 223.863 196.537C224.077 195.944 224.221 195.327 224.293 194.701C224.653 192.387 224.035 190.028 222.588 188.19V188.545C223.737 187.151 224.987 185.606 226.376 183.972L226.288 184.048C227.185 183.529 228.106 182.959 229.028 182.351L230.43 181.388C230.924 181.053 231.385 180.671 231.806 180.248C232.211 179.837 232.454 179.292 232.488 178.715C232.494 178.126 232.246 177.562 231.806 177.17L231.693 177.043H231.516L223.649 179.285L217.461 183.909C216.653 184.465 215.893 185.088 215.188 185.771C216.042 185.296 216.864 184.767 217.651 184.187L223.964 179.741H223.876L231.756 177.588H231.465C231.747 177.86 231.907 178.235 231.907 178.627C231.869 179.044 231.686 179.434 231.39 179.729C231.002 180.117 230.579 180.469 230.127 180.78L228.763 181.73C227.854 182.338 226.945 182.908 226.061 183.415C224.798 185.087 223.535 186.645 222.386 188.051L222.247 188.228L222.399 188.405C223.189 189.348 223.74 190.47 224.002 191.673C224.214 192.603 224.278 193.561 224.192 194.511C223.838 196.259 223.522 197.12 223.598 197.145Z" fill="#AA6550"/>
<path d="M234.054 179.995C233.65 180.375 233.29 180.8 232.981 181.261C232.075 182.496 231.261 183.796 230.544 185.15C230.035 186.09 229.58 187.059 229.18 188.051C228.934 188.648 228.872 189.305 229.003 189.938C229.204 190.663 229.804 191.206 230.544 191.331C231.257 191.468 231.995 191.347 232.627 190.989C233.256 190.662 233.841 190.258 234.37 189.786C235.438 188.814 236.376 187.707 237.161 186.493C237.628 185.821 238.045 185.137 238.424 184.491L237.906 184.111C236.263 186.02 234.863 188.126 233.739 190.381C233.458 190.92 233.319 191.522 233.335 192.129C233.367 192.743 233.679 193.309 234.181 193.662C234.685 193.934 235.286 193.957 235.81 193.725C236.24 193.532 236.636 193.272 236.984 192.953C237.991 192.051 238.905 191.049 239.712 189.963C240.027 189.58 240.286 189.153 240.482 188.697C239.304 190.078 238.039 191.381 236.694 192.598C236.087 193.092 235.166 193.649 234.446 193.193C234.097 192.923 233.888 192.508 233.878 192.066C233.88 191.558 234.006 191.058 234.244 190.609C235.403 188.43 236.805 186.391 238.424 184.529L237.893 184.149C237.502 184.783 237.072 185.416 236.63 186.125C235.862 187.303 234.95 188.379 233.916 189.33C232.905 190.179 231.731 191.015 230.632 190.774C230.109 190.692 229.678 190.318 229.521 189.811C229.417 189.289 229.465 188.748 229.66 188.253C230.039 187.227 230.506 186.252 230.923 185.391C231.593 184.032 232.339 182.713 233.158 181.439C233.504 180.988 233.804 180.505 234.054 179.995Z" fill="#AA6550"/>
<path d="M176.409 259.237C176.213 259.549 176.072 259.891 175.992 260.251C175.708 261.196 175.521 262.168 175.436 263.151C175.15 266.439 175.835 269.739 177.406 272.639C178.245 274.236 179.303 275.707 180.551 277.009C181.585 278.078 182.833 278.915 184.213 279.466C185.139 279.824 186.114 280.041 187.104 280.112C187.463 280.185 187.832 280.185 188.19 280.112C186.899 279.881 185.631 279.533 184.402 279.073C183.12 278.485 181.963 277.655 180.993 276.629C179.818 275.336 178.809 273.902 177.987 272.36C176.485 269.555 175.77 266.395 175.916 263.215C176.017 260.732 176.548 259.275 176.409 259.237Z" fill="#AA6550"/>
</svg>
