<svg width="284" height="24" viewBox="0 0 284 24" fill="none" xmlns="http://www.w3.org/2000/svg">
<path fill-rule="evenodd" clip-rule="evenodd" d="M2 5C2 4.20435 2.31607 3.44129 2.87868 2.87868C3.44129 2.31607 4.20435 2 5 2H19C19.7956 2 20.5587 2.31607 21.1213 2.87868C21.6839 3.44129 22 4.20435 22 5V19C22 19.7956 21.6839 20.5587 21.1213 21.1213C20.5587 21.6839 19.7956 22 19 22H5C4.20435 22 3.44129 21.6839 2.87868 21.1213C2.31607 20.5587 2 19.7956 2 19V5ZM5 4C4.73478 4 4.48043 4.10536 4.29289 4.29289C4.10536 4.48043 4 4.73478 4 5V10H20V5C20 4.73478 19.8946 4.48043 19.7071 4.29289C19.5196 4.10536 19.2652 4 19 4H5ZM4 12V19C4 19.2652 4.10536 19.5196 4.29289 19.7071C4.48043 19.8946 4.73478 20 5 20H19C19.2652 20 19.5196 19.8946 19.7071 19.7071C19.8946 19.5196 20 19.2652 20 19V12H4ZM14 13C14.2652 13.0001 14.5195 13.1055 14.707 13.293L18.707 17.293C18.8892 17.4816 18.99 17.7342 18.9877 17.9964C18.9854 18.2586 18.8802 18.5094 18.6948 18.6948C18.5094 18.8802 18.2586 18.9854 17.9964 18.9877C17.7342 18.99 17.4816 18.8892 17.293 18.707L14 15.414L11.707 17.707L10.707 18.707C10.5184 18.8892 10.2658 18.99 10.0036 18.9877C9.7414 18.9854 9.49059 18.8802 9.30518 18.6948C9.11977 18.5094 9.0146 18.2586 9.01233 17.9964C9.01005 17.7342 9.11084 17.4816 9.293 17.293L9.586 17L9 16.414L6.707 18.707C6.5184 18.8892 6.2658 18.99 6.0036 18.9877C5.7414 18.9854 5.49059 18.8802 5.30518 18.6948C5.11977 18.5094 5.0146 18.2586 5.01233 17.9964C5.01005 17.7342 5.11084 17.4816 5.293 17.293L8.293 14.293C8.48053 14.1055 8.73484 14.0002 9 14.0002C9.26516 14.0002 9.51947 14.1055 9.707 14.293L11 15.586L13.293 13.293C13.4805 13.1055 13.7348 13.0001 14 13ZM11 7C11 6.73478 11.1054 6.48043 11.2929 6.29289C11.4804 6.10536 11.7348 6 12 6H17C17.2652 6 17.5196 6.10536 17.7071 6.29289C17.8946 6.48043 18 6.73478 18 7C18 7.26522 17.8946 7.51957 17.7071 7.70711C17.5196 7.89464 17.2652 8 17 8H12C11.7348 8 11.4804 7.89464 11.2929 7.70711C11.1054 7.51957 11 7.26522 11 7ZM7 8.75C7.46413 8.75 7.90925 8.56563 8.23744 8.23744C8.56563 7.90925 8.75 7.46413 8.75 7C8.75 6.53587 8.56563 6.09075 8.23744 5.76256C7.90925 5.43437 7.46413 5.25 7 5.25C6.53587 5.25 6.09075 5.43437 5.76256 5.76256C5.43437 6.09075 5.25 6.53587 5.25 7C5.25 7.46413 5.43437 7.90925 5.76256 8.23744C6.09075 8.56563 6.53587 8.75 7 8.75Z" fill="#787878"/>
<path d="M31.352 10.47H32.976C33.424 10.47 33.802 10.4233 34.11 10.33C34.4273 10.2367 34.6793 10.1153 34.866 9.966C35.0527 9.80733 35.188 9.62533 35.272 9.42C35.356 9.20533 35.398 8.97667 35.398 8.734C35.398 8.50067 35.356 8.28133 35.272 8.076C35.188 7.86133 35.0527 7.67467 34.866 7.516C34.6793 7.35733 34.4273 7.236 34.11 7.152C33.802 7.05867 33.424 7.012 32.976 7.012H31.352V10.47ZM30.344 6.088H33.228C34.236 6.088 35.0293 6.30733 35.608 6.746C36.196 7.18467 36.49 7.84733 36.49 8.734C36.49 9.62067 36.196 10.288 35.608 10.736C35.0293 11.1747 34.236 11.394 33.228 11.394H31.352V16H30.344V6.088ZM38.0471 5.416H38.9711V10.498H38.9991C39.1017 10.3207 39.2324 10.1573 39.3911 10.008C39.5497 9.85867 39.7271 9.73267 39.9231 9.63C40.1191 9.518 40.3244 9.434 40.5391 9.378C40.7631 9.31267 40.9824 9.28 41.1971 9.28C42.0371 9.28 42.6577 9.504 43.0591 9.952C43.4604 10.3907 43.6611 11.0207 43.6611 11.842V16H42.7371V12.374C42.7371 11.646 42.6111 11.0907 42.3591 10.708C42.1071 10.316 41.6404 10.12 40.9591 10.12C40.9124 10.12 40.7817 10.1387 40.5671 10.176C40.3524 10.2133 40.1237 10.316 39.8811 10.484C39.6477 10.652 39.4377 10.904 39.2511 11.24C39.0644 11.576 38.9711 12.0427 38.9711 12.64V16H38.0471V5.416ZM51.4404 12.724C51.4404 12.36 51.3797 12.0193 51.2584 11.702C51.1464 11.3847 50.983 11.1093 50.7684 10.876C50.5537 10.6427 50.2924 10.4607 49.9844 10.33C49.6857 10.19 49.345 10.12 48.9624 10.12C48.5797 10.12 48.2344 10.19 47.9264 10.33C47.6277 10.4607 47.371 10.6427 47.1564 10.876C46.951 11.1093 46.7877 11.3847 46.6664 11.702C46.5544 12.0193 46.4984 12.36 46.4984 12.724C46.4984 13.088 46.5544 13.4287 46.6664 13.746C46.7877 14.0633 46.951 14.3387 47.1564 14.572C47.371 14.8053 47.6277 14.992 47.9264 15.132C48.2344 15.2627 48.5797 15.328 48.9624 15.328C49.345 15.328 49.6857 15.2627 49.9844 15.132C50.2924 14.992 50.5537 14.8053 50.7684 14.572C50.983 14.3387 51.1464 14.0633 51.2584 13.746C51.3797 13.4287 51.4404 13.088 51.4404 12.724ZM52.4484 12.724C52.4484 13.2187 52.3597 13.676 52.1824 14.096C52.0144 14.516 51.7764 14.88 51.4684 15.188C51.1604 15.496 50.7917 15.7387 50.3624 15.916C49.9424 16.084 49.4757 16.168 48.9624 16.168C48.4584 16.168 47.9917 16.084 47.5624 15.916C47.1424 15.7387 46.7784 15.496 46.4704 15.188C46.1624 14.88 45.9197 14.516 45.7424 14.096C45.5744 13.676 45.4904 13.2187 45.4904 12.724C45.4904 12.2293 45.5744 11.772 45.7424 11.352C45.9197 10.932 46.1624 10.568 46.4704 10.26C46.7784 9.952 47.1424 9.714 47.5624 9.546C47.9917 9.36867 48.4584 9.28 48.9624 9.28C49.4757 9.28 49.9424 9.36867 50.3624 9.546C50.7917 9.714 51.1604 9.952 51.4684 10.26C51.7764 10.568 52.0144 10.932 52.1824 11.352C52.3597 11.772 52.4484 12.2293 52.4484 12.724ZM57.5132 10.288H55.6232V14.152C55.6232 14.3947 55.6465 14.5953 55.6932 14.754C55.7399 14.9033 55.8052 15.02 55.8892 15.104C55.9732 15.188 56.0712 15.2487 56.1832 15.286C56.3045 15.314 56.4352 15.328 56.5752 15.328C56.7339 15.328 56.8972 15.3047 57.0652 15.258C57.2332 15.2113 57.3872 15.1507 57.5272 15.076L57.5692 15.93C57.2239 16.0887 56.8085 16.168 56.3232 16.168C56.1459 16.168 55.9592 16.1447 55.7632 16.098C55.5765 16.0513 55.4039 15.9627 55.2452 15.832C55.0865 15.7013 54.9559 15.524 54.8532 15.3C54.7505 15.076 54.6992 14.782 54.6992 14.418V10.288H53.3132V9.448H54.6992V7.6H55.6232V9.448H57.5132V10.288ZM64.3876 12.724C64.3876 12.36 64.327 12.0193 64.2056 11.702C64.0936 11.3847 63.9303 11.1093 63.7156 10.876C63.501 10.6427 63.2396 10.4607 62.9316 10.33C62.633 10.19 62.2923 10.12 61.9096 10.12C61.527 10.12 61.1816 10.19 60.8736 10.33C60.575 10.4607 60.3183 10.6427 60.1036 10.876C59.8983 11.1093 59.735 11.3847 59.6136 11.702C59.5016 12.0193 59.4456 12.36 59.4456 12.724C59.4456 13.088 59.5016 13.4287 59.6136 13.746C59.735 14.0633 59.8983 14.3387 60.1036 14.572C60.3183 14.8053 60.575 14.992 60.8736 15.132C61.1816 15.2627 61.527 15.328 61.9096 15.328C62.2923 15.328 62.633 15.2627 62.9316 15.132C63.2396 14.992 63.501 14.8053 63.7156 14.572C63.9303 14.3387 64.0936 14.0633 64.2056 13.746C64.327 13.4287 64.3876 13.088 64.3876 12.724ZM65.3956 12.724C65.3956 13.2187 65.307 13.676 65.1296 14.096C64.9616 14.516 64.7236 14.88 64.4156 15.188C64.1076 15.496 63.739 15.7387 63.3096 15.916C62.8896 16.084 62.423 16.168 61.9096 16.168C61.4056 16.168 60.939 16.084 60.5096 15.916C60.0896 15.7387 59.7256 15.496 59.4176 15.188C59.1096 14.88 58.867 14.516 58.6896 14.096C58.5216 13.676 58.4376 13.2187 58.4376 12.724C58.4376 12.2293 58.5216 11.772 58.6896 11.352C58.867 10.932 59.1096 10.568 59.4176 10.26C59.7256 9.952 60.0896 9.714 60.5096 9.546C60.939 9.36867 61.4056 9.28 61.9096 9.28C62.423 9.28 62.8896 9.36867 63.3096 9.546C63.739 9.714 64.1076 9.952 64.4156 10.26C64.7236 10.568 64.9616 10.932 65.1296 11.352C65.307 11.772 65.3956 12.2293 65.3956 12.724Z" fill="black"/>
<path d="M130.228 14.488H130.256L133.504 6.088H134.596L130.732 16H129.724L125.958 6.088H127.078L130.228 14.488ZM136.993 6.928C136.993 7.124 136.923 7.28733 136.783 7.418C136.643 7.53933 136.489 7.6 136.321 7.6C136.153 7.6 135.999 7.53933 135.859 7.418C135.719 7.28733 135.649 7.124 135.649 6.928C135.649 6.732 135.719 6.57333 135.859 6.452C135.999 6.32133 136.153 6.256 136.321 6.256C136.489 6.256 136.643 6.32133 136.783 6.452C136.923 6.57333 136.993 6.732 136.993 6.928ZM136.783 16H135.859V9.448H136.783V16ZM139.572 12.724C139.572 13.088 139.628 13.4287 139.74 13.746C139.861 14.0633 140.029 14.3387 140.244 14.572C140.459 14.8053 140.715 14.992 141.014 15.132C141.322 15.2627 141.667 15.328 142.05 15.328C142.423 15.328 142.769 15.2627 143.086 15.132C143.413 14.992 143.693 14.8053 143.926 14.572C144.159 14.3387 144.341 14.0633 144.472 13.746C144.603 13.4287 144.668 13.088 144.668 12.724C144.668 12.36 144.603 12.0193 144.472 11.702C144.341 11.3847 144.159 11.1093 143.926 10.876C143.693 10.6427 143.413 10.4607 143.086 10.33C142.769 10.19 142.423 10.12 142.05 10.12C141.667 10.12 141.322 10.19 141.014 10.33C140.715 10.4607 140.459 10.6427 140.244 10.876C140.029 11.1093 139.861 11.3847 139.74 11.702C139.628 12.0193 139.572 12.36 139.572 12.724ZM145.55 16H144.626V14.908H144.598C144.449 15.132 144.271 15.3233 144.066 15.482C143.861 15.6407 143.646 15.7713 143.422 15.874C143.198 15.9767 142.965 16.0513 142.722 16.098C142.489 16.1447 142.265 16.168 142.05 16.168C141.537 16.168 141.065 16.084 140.636 15.916C140.216 15.7387 139.852 15.496 139.544 15.188C139.236 14.88 138.993 14.516 138.816 14.096C138.648 13.676 138.564 13.2187 138.564 12.724C138.564 12.2293 138.648 11.772 138.816 11.352C138.993 10.932 139.236 10.568 139.544 10.26C139.852 9.952 140.216 9.714 140.636 9.546C141.065 9.36867 141.537 9.28 142.05 9.28C142.265 9.28 142.489 9.30333 142.722 9.35C142.965 9.39667 143.198 9.47133 143.422 9.574C143.646 9.67667 143.861 9.80733 144.066 9.966C144.271 10.1247 144.449 10.316 144.598 10.54H144.626V5.416H145.55V16ZM152.667 12.22C152.667 11.5947 152.48 11.0907 152.107 10.708C151.733 10.316 151.211 10.12 150.539 10.12C150.24 10.12 149.951 10.1807 149.671 10.302C149.391 10.414 149.143 10.568 148.929 10.764C148.723 10.96 148.555 11.184 148.425 11.436C148.303 11.688 148.243 11.9493 148.243 12.22H152.667ZM148.215 12.976C148.243 13.3027 148.322 13.6107 148.453 13.9C148.583 14.1893 148.756 14.4413 148.971 14.656C149.185 14.8613 149.433 15.0247 149.713 15.146C149.993 15.2673 150.296 15.328 150.623 15.328C151.117 15.328 151.542 15.216 151.897 14.992C152.261 14.7587 152.536 14.4927 152.723 14.194L153.437 14.782C153.045 15.2767 152.611 15.6313 152.135 15.846C151.668 16.0607 151.164 16.168 150.623 16.168C150.137 16.168 149.685 16.084 149.265 15.916C148.854 15.7387 148.499 15.496 148.201 15.188C147.902 14.88 147.664 14.516 147.486 14.096C147.319 13.676 147.235 13.2187 147.235 12.724C147.235 12.2293 147.319 11.772 147.486 11.352C147.655 10.932 147.888 10.568 148.187 10.26C148.485 9.952 148.835 9.714 149.237 9.546C149.638 9.36867 150.072 9.28 150.539 9.28C151.033 9.28 151.477 9.36867 151.869 9.546C152.261 9.72333 152.587 9.96133 152.849 10.26C153.119 10.5493 153.325 10.8947 153.465 11.296C153.605 11.688 153.675 12.108 153.675 12.556V12.976H148.215ZM160.964 12.724C160.964 12.36 160.903 12.0193 160.782 11.702C160.67 11.3847 160.506 11.1093 160.292 10.876C160.077 10.6427 159.816 10.4607 159.508 10.33C159.209 10.19 158.868 10.12 158.486 10.12C158.103 10.12 157.758 10.19 157.45 10.33C157.151 10.4607 156.894 10.6427 156.68 10.876C156.474 11.1093 156.311 11.3847 156.19 11.702C156.078 12.0193 156.022 12.36 156.022 12.724C156.022 13.088 156.078 13.4287 156.19 13.746C156.311 14.0633 156.474 14.3387 156.68 14.572C156.894 14.8053 157.151 14.992 157.45 15.132C157.758 15.2627 158.103 15.328 158.486 15.328C158.868 15.328 159.209 15.2627 159.508 15.132C159.816 14.992 160.077 14.8053 160.292 14.572C160.506 14.3387 160.67 14.0633 160.782 13.746C160.903 13.4287 160.964 13.088 160.964 12.724ZM161.972 12.724C161.972 13.2187 161.883 13.676 161.706 14.096C161.538 14.516 161.3 14.88 160.992 15.188C160.684 15.496 160.315 15.7387 159.886 15.916C159.466 16.084 158.999 16.168 158.486 16.168C157.982 16.168 157.515 16.084 157.086 15.916C156.666 15.7387 156.302 15.496 155.994 15.188C155.686 14.88 155.443 14.516 155.266 14.096C155.098 13.676 155.014 13.2187 155.014 12.724C155.014 12.2293 155.098 11.772 155.266 11.352C155.443 10.932 155.686 10.568 155.994 10.26C156.302 9.952 156.666 9.714 157.086 9.546C157.515 9.36867 157.982 9.28 158.486 9.28C158.999 9.28 159.466 9.36867 159.886 9.546C160.315 9.714 160.684 9.952 160.992 10.26C161.3 10.568 161.538 10.932 161.706 11.352C161.883 11.772 161.972 12.2293 161.972 12.724Z" fill="black"/>
<path fill-rule="evenodd" clip-rule="evenodd" d="M113 8C113 7.20435 112.684 6.44129 112.121 5.87868C111.559 5.31607 110.796 5 110 5H101C100.204 5 99.4413 5.31607 98.8787 5.87868C98.3161 6.44129 98 7.20435 98 8V16C98 16.7956 98.3161 17.5587 98.8787 18.1213C99.4413 18.6839 100.204 19 101 19H110C110.796 19 111.559 18.6839 112.121 18.1213C112.684 17.5587 113 16.7956 113 16V13.943L118.419 17.813C118.568 17.9197 118.744 17.9832 118.928 17.9965C119.111 18.0098 119.294 17.9724 119.457 17.8884C119.621 17.8044 119.758 17.6771 119.853 17.5204C119.949 17.3637 120 17.1836 120 17V7C120 6.81628 119.949 6.63611 119.854 6.47925C119.758 6.3224 119.621 6.19492 119.458 6.11083C119.294 6.02673 119.111 5.98925 118.928 6.00251C118.745 6.01577 118.569 6.07926 118.419 6.186L113 10.056V8ZM113.72 12L118 8.943V15.057L113.72 12ZM110 7C110.265 7 110.52 7.10536 110.707 7.29289C110.895 7.48043 111 7.73478 111 8V16C111 16.2652 110.895 16.5196 110.707 16.7071C110.52 16.8946 110.265 17 110 17H101C100.735 17 100.48 16.8946 100.293 16.7071C100.105 16.5196 100 16.2652 100 16V8C100 7.73478 100.105 7.48043 100.293 7.29289C100.48 7.10536 100.735 7 101 7H110Z" fill="#898989"/>
<path d="M220.212 15.076H222.172C222.928 15.076 223.581 14.964 224.132 14.74C224.692 14.5067 225.154 14.2033 225.518 13.83C225.891 13.4473 226.167 13.018 226.344 12.542C226.521 12.0567 226.61 11.5573 226.61 11.044C226.61 10.5307 226.521 10.036 226.344 9.56C226.167 9.07467 225.891 8.64533 225.518 8.272C225.154 7.88933 224.692 7.586 224.132 7.362C223.581 7.12867 222.928 7.012 222.172 7.012H220.212V15.076ZM219.204 6.088H222.494C223.11 6.088 223.726 6.19067 224.342 6.396C224.967 6.60133 225.527 6.914 226.022 7.334C226.526 7.74467 226.932 8.26267 227.24 8.888C227.548 9.504 227.702 10.2227 227.702 11.044C227.702 11.8747 227.548 12.598 227.24 13.214C226.932 13.83 226.526 14.348 226.022 14.768C225.527 15.1787 224.967 15.4867 224.342 15.692C223.726 15.8973 223.11 16 222.494 16H219.204V6.088ZM234.999 12.724C234.999 12.36 234.938 12.0193 234.817 11.702C234.705 11.3847 234.542 11.1093 234.327 10.876C234.112 10.6427 233.851 10.4607 233.543 10.33C233.244 10.19 232.904 10.12 232.521 10.12C232.138 10.12 231.793 10.19 231.485 10.33C231.186 10.4607 230.93 10.6427 230.715 10.876C230.51 11.1093 230.346 11.3847 230.225 11.702C230.113 12.0193 230.057 12.36 230.057 12.724C230.057 13.088 230.113 13.4287 230.225 13.746C230.346 14.0633 230.51 14.3387 230.715 14.572C230.93 14.8053 231.186 14.992 231.485 15.132C231.793 15.2627 232.138 15.328 232.521 15.328C232.904 15.328 233.244 15.2627 233.543 15.132C233.851 14.992 234.112 14.8053 234.327 14.572C234.542 14.3387 234.705 14.0633 234.817 13.746C234.938 13.4287 234.999 13.088 234.999 12.724ZM236.007 12.724C236.007 13.2187 235.918 13.676 235.741 14.096C235.573 14.516 235.335 14.88 235.027 15.188C234.719 15.496 234.35 15.7387 233.921 15.916C233.501 16.084 233.034 16.168 232.521 16.168C232.017 16.168 231.55 16.084 231.121 15.916C230.701 15.7387 230.337 15.496 230.029 15.188C229.721 14.88 229.478 14.516 229.301 14.096C229.133 13.676 229.049 13.2187 229.049 12.724C229.049 12.2293 229.133 11.772 229.301 11.352C229.478 10.932 229.721 10.568 230.029 10.26C230.337 9.952 230.701 9.714 231.121 9.546C231.55 9.36867 232.017 9.28 232.521 9.28C233.034 9.28 233.501 9.36867 233.921 9.546C234.35 9.714 234.719 9.952 235.027 10.26C235.335 10.568 235.573 10.932 235.741 11.352C235.918 11.772 236.007 12.2293 236.007 12.724ZM242.458 10.988C242.299 10.7453 242.075 10.54 241.786 10.372C241.506 10.204 241.184 10.12 240.82 10.12C240.437 10.1107 240.092 10.1713 239.784 10.302C239.485 10.4327 239.228 10.6147 239.014 10.848C238.799 11.0813 238.636 11.3613 238.524 11.688C238.412 12.0053 238.356 12.3507 238.356 12.724C238.356 13.0973 238.412 13.4473 238.524 13.774C238.636 14.0913 238.799 14.3667 239.014 14.6C239.228 14.8333 239.485 15.0153 239.784 15.146C240.092 15.2767 240.437 15.3373 240.82 15.328C241.184 15.328 241.506 15.244 241.786 15.076C242.075 14.908 242.299 14.7027 242.458 14.46L243.214 15.034C242.887 15.4167 242.518 15.7013 242.108 15.888C241.697 16.0653 241.268 16.1587 240.82 16.168C240.288 16.1773 239.807 16.098 239.378 15.93C238.948 15.7527 238.58 15.51 238.272 15.202C237.973 14.894 237.744 14.53 237.586 14.11C237.427 13.6807 237.348 13.2187 237.348 12.724C237.348 12.2293 237.427 11.772 237.586 11.352C237.744 10.9227 237.973 10.554 238.272 10.246C238.58 9.938 238.948 9.7 239.378 9.532C239.807 9.35467 240.288 9.27067 240.82 9.28C241.268 9.28933 241.697 9.38733 242.108 9.574C242.518 9.75133 242.887 10.0313 243.214 10.414L242.458 10.988ZM249.17 16C249.151 15.8227 249.137 15.65 249.128 15.482C249.128 15.3047 249.128 15.1273 249.128 14.95H249.1C248.997 15.1273 248.866 15.2907 248.708 15.44C248.549 15.5893 248.372 15.72 248.176 15.832C247.98 15.9347 247.77 16.014 247.546 16.07C247.331 16.1353 247.116 16.168 246.902 16.168C246.062 16.168 245.441 15.9487 245.04 15.51C244.638 15.062 244.438 14.4273 244.438 13.606V9.448H245.362V13.074C245.362 13.438 245.39 13.76 245.446 14.04C245.502 14.32 245.595 14.558 245.726 14.754C245.866 14.9407 246.048 15.0853 246.272 15.188C246.505 15.2813 246.794 15.328 247.14 15.328C247.186 15.328 247.317 15.3093 247.532 15.272C247.746 15.2347 247.97 15.132 248.204 14.964C248.446 14.796 248.661 14.544 248.848 14.208C249.034 13.872 249.128 13.4053 249.128 12.808V9.448H250.052V14.558C250.052 14.7353 250.056 14.9593 250.066 15.23C250.084 15.5007 250.103 15.7573 250.122 16H249.17ZM252.217 10.904C252.217 10.6613 252.208 10.4187 252.189 10.176C252.18 9.93333 252.166 9.69067 252.147 9.448H253.141V10.442H253.169C253.393 10.0593 253.701 9.77 254.093 9.574C254.494 9.378 254.891 9.28 255.283 9.28C255.46 9.28 255.647 9.29867 255.843 9.336C256.048 9.37333 256.244 9.44333 256.431 9.546C256.618 9.63933 256.79 9.77467 256.949 9.952C257.117 10.1293 257.257 10.358 257.369 10.638C257.556 10.218 257.85 9.88667 258.251 9.644C258.662 9.40133 259.086 9.28 259.525 9.28C260.365 9.28 260.986 9.504 261.387 9.952C261.788 10.3907 261.989 11.0207 261.989 11.842V16H261.065V12.178C261.065 11.5153 260.948 11.0067 260.715 10.652C260.482 10.2973 260.048 10.12 259.413 10.12C259.068 10.12 258.778 10.19 258.545 10.33C258.312 10.4607 258.12 10.638 257.971 10.862C257.831 11.086 257.728 11.3427 257.663 11.632C257.598 11.912 257.565 12.206 257.565 12.514V16H256.641V12.178C256.641 11.5153 256.524 11.0067 256.291 10.652C256.058 10.2973 255.624 10.12 254.989 10.12C254.933 10.12 254.802 10.1387 254.597 10.176C254.401 10.2133 254.196 10.316 253.981 10.484C253.766 10.652 253.57 10.904 253.393 11.24C253.225 11.576 253.141 12.0427 253.141 12.64V16H252.217V10.904ZM269.235 12.22C269.235 11.5947 269.048 11.0907 268.675 10.708C268.302 10.316 267.779 10.12 267.107 10.12C266.808 10.12 266.519 10.1807 266.239 10.302C265.959 10.414 265.712 10.568 265.497 10.764C265.292 10.96 265.124 11.184 264.993 11.436C264.872 11.688 264.811 11.9493 264.811 12.22H269.235ZM264.783 12.976C264.811 13.3027 264.89 13.6107 265.021 13.9C265.152 14.1893 265.324 14.4413 265.539 14.656C265.754 14.8613 266.001 15.0247 266.281 15.146C266.561 15.2673 266.864 15.328 267.191 15.328C267.686 15.328 268.11 15.216 268.465 14.992C268.829 14.7587 269.104 14.4927 269.291 14.194L270.005 14.782C269.613 15.2767 269.179 15.6313 268.703 15.846C268.236 16.0607 267.732 16.168 267.191 16.168C266.706 16.168 266.253 16.084 265.833 15.916C265.422 15.7387 265.068 15.496 264.769 15.188C264.47 14.88 264.232 14.516 264.055 14.096C263.887 13.676 263.803 13.2187 263.803 12.724C263.803 12.2293 263.887 11.772 264.055 11.352C264.223 10.932 264.456 10.568 264.755 10.26C265.054 9.952 265.404 9.714 265.805 9.546C266.206 9.36867 266.64 9.28 267.107 9.28C267.602 9.28 268.045 9.36867 268.437 9.546C268.829 9.72333 269.156 9.96133 269.417 10.26C269.688 10.5493 269.893 10.8947 270.033 11.296C270.173 11.688 270.243 12.108 270.243 12.556V12.976H264.783ZM272.8 9.448C272.819 9.62533 272.828 9.80267 272.828 9.98C272.837 10.148 272.842 10.3207 272.842 10.498H272.87C272.973 10.3207 273.103 10.1573 273.262 10.008C273.421 9.85867 273.598 9.73267 273.794 9.63C273.99 9.518 274.195 9.434 274.41 9.378C274.634 9.31267 274.853 9.28 275.068 9.28C275.908 9.28 276.529 9.504 276.93 9.952C277.331 10.3907 277.532 11.0207 277.532 11.842V16H276.608V12.374C276.608 11.646 276.482 11.0907 276.23 10.708C275.978 10.316 275.511 10.12 274.83 10.12C274.783 10.12 274.653 10.1387 274.438 10.176C274.223 10.2133 273.995 10.316 273.752 10.484C273.519 10.652 273.309 10.904 273.122 11.24C272.935 11.576 272.842 12.0427 272.842 12.64V16H271.918V10.89C271.918 10.7127 271.909 10.4887 271.89 10.218C271.881 9.94733 271.867 9.69067 271.848 9.448H272.8ZM283.085 10.288H281.195V14.152C281.195 14.3947 281.219 14.5953 281.265 14.754C281.312 14.9033 281.377 15.02 281.461 15.104C281.545 15.188 281.643 15.2487 281.755 15.286C281.877 15.314 282.007 15.328 282.147 15.328C282.306 15.328 282.469 15.3047 282.637 15.258C282.805 15.2113 282.959 15.1507 283.099 15.076L283.141 15.93C282.796 16.0887 282.381 16.168 281.895 16.168C281.718 16.168 281.531 16.1447 281.335 16.098C281.149 16.0513 280.976 15.9627 280.817 15.832C280.659 15.7013 280.528 15.524 280.425 15.3C280.323 15.076 280.271 14.782 280.271 14.418V10.288H278.885V9.448H280.271V7.6H281.195V9.448H283.085V10.288Z" fill="black"/>
<path fill-rule="evenodd" clip-rule="evenodd" d="M201.333 1.83337C201.112 1.83342 200.9 1.92125 200.744 2.07754L195.744 7.07754C195.588 7.23378 195.5 7.44571 195.5 7.66671V17.6667C195.5 18.3297 195.763 18.9656 196.232 19.4345C196.701 19.9033 197.337 20.1667 198 20.1667H198.833C199.054 20.1667 199.266 20.0789 199.423 19.9226C199.579 19.7663 199.667 19.5544 199.667 19.3334C199.667 19.1124 199.579 18.9004 199.423 18.7441C199.266 18.5878 199.054 18.5 198.833 18.5H198C197.779 18.5 197.567 18.4122 197.411 18.256C197.254 18.0997 197.167 17.8877 197.167 17.6667V8.50004H201.333C201.554 8.50004 201.766 8.41224 201.923 8.25596C202.079 8.09968 202.167 7.88772 202.167 7.66671V3.50004H208C208.221 3.50004 208.433 3.58784 208.589 3.74412C208.746 3.9004 208.833 4.11236 208.833 4.33337V10.1667C208.833 10.3877 208.921 10.5997 209.077 10.756C209.234 10.9122 209.446 11 209.667 11C209.888 11 210.1 10.9122 210.256 10.756C210.412 10.5997 210.5 10.3877 210.5 10.1667V4.33337C210.5 3.67033 210.237 3.03445 209.768 2.56561C209.299 2.09677 208.663 1.83337 208 1.83337H201.333ZM200.5 6.83337H198.345L200.5 4.67837V6.83337ZM201.59 20.6359C201.722 20.7984 201.912 20.9309 202.154 20.98C202.379 21.0267 202.577 20.9842 202.713 20.9342C202.965 20.8425 203.163 20.67 203.292 20.5425C203.495 20.3425 203.708 20.0709 203.919 19.7642C204.844 19.445 206.142 19.1517 207.406 18.9667C208.108 18.8642 208.764 18.8 209.316 18.7784C209.534 19.0367 209.733 19.2575 209.899 19.425C210.002 19.53 210.117 19.6392 210.231 19.7225C210.281 19.76 210.377 19.8267 210.499 19.8742C210.563 19.8992 210.982 20.0592 211.368 19.7475C211.597 19.5642 211.807 19.3584 211.953 19.1275C212.101 18.8942 212.24 18.5392 212.124 18.1359C212.011 17.74 211.716 17.5192 211.498 17.4042C211.278 17.2949 211.042 17.2202 210.798 17.1825C210.568 17.1441 210.336 17.1204 210.102 17.1117C209.516 16.3754 208.951 15.6211 208.411 14.85C207.939 14.1842 207.494 13.5001 207.076 12.7992C207.113 12.6384 207.144 12.485 207.169 12.3384C207.211 12.0884 207.236 11.8367 207.23 11.6009C207.23 11.3413 207.174 11.0847 207.067 10.8484C206.994 10.6931 206.888 10.5555 206.757 10.4451C206.626 10.3348 206.472 10.2543 206.307 10.2092C205.972 10.1192 205.653 10.1867 205.407 10.2775C205.03 10.4167 204.822 10.7275 204.751 11.03C204.704 11.255 204.708 11.4875 204.762 11.7109C204.84 12.0759 205.023 12.4967 205.233 12.9075C205.252 12.9442 205.271 12.9817 205.291 13.0184C205.092 13.6725 204.798 14.4434 204.449 15.2417C203.938 16.4109 203.337 17.57 202.821 18.3984C202.468 18.5459 202.142 18.715 201.896 18.91C201.727 19.0425 201.502 19.2575 201.393 19.5725C201.261 19.9592 201.355 20.3459 201.59 20.6359ZM202.897 20.2459L202.902 20.24C202.9 20.2421 202.898 20.2441 202.897 20.2459ZM207.164 17.3175C206.486 17.4175 205.788 17.5475 205.125 17.6992C205.42 17.1267 205.711 16.5167 205.977 15.9092C206.127 15.565 206.273 15.215 206.408 14.8692C206.613 15.1809 206.828 15.4967 207.047 15.8067C207.377 16.2782 207.716 16.7438 208.063 17.2034C207.766 17.235 207.463 17.2742 207.164 17.3175ZM206.384 11.32V11.3184V11.32Z" fill="#787878"/>
</svg>
