<svg width="638" height="626" viewBox="0 0 638 626" fill="none" xmlns="http://www.w3.org/2000/svg">
<path d="M200.406 49.4753C200.406 49.4753 92.0902 104.644 38.0683 189.656C-15.9537 274.667 -11.6794 384.033 53.9647 465.214C119.609 546.395 245.079 535.733 350.135 587.157C455.191 638.582 571.097 627.991 620.773 519.04C670.45 410.088 595.542 369.369 582.676 243.281C569.811 117.193 456.12 -67.437 200.406 49.4753Z" fill="#FD6A7E"/>
<path opacity="0.7" d="M200.406 49.4753C200.406 49.4753 92.0902 104.644 38.0683 189.656C-15.9537 274.667 -11.6794 384.033 53.9647 465.214C119.609 546.395 245.079 535.733 350.135 587.157C455.191 638.582 571.097 627.991 620.773 519.04C670.45 410.088 595.542 369.369 582.676 243.281C569.811 117.193 456.12 -67.437 200.406 49.4753Z" fill="white"/>
<path d="M519.824 544.12C519.824 544.12 459.125 437.277 473.138 410.027C487.151 382.776 522.932 431.773 522.932 431.773C522.932 431.773 491.813 332.121 508.933 288.586C526.054 245.051 555.62 288.586 557.173 319.397C558.727 350.207 550.944 402.749 550.944 402.749C550.944 402.749 563.403 294.091 592.968 326.645C622.534 359.2 555.62 467.973 555.62 467.973C555.62 467.973 600.752 442.61 599.184 475.222C597.616 507.834 544.728 536.828 544.728 536.828" fill="#FD6A7E"/>
<path d="M520.338 524.19C520.338 524.19 464.172 471.633 491.542 448.086C518.912 424.538 533.31 473.449 533.31 473.449C533.31 473.449 503.06 323.057 552.027 317.61C600.994 312.162 564.985 448.071 564.985 448.071C564.985 448.071 606.753 390.096 603.874 437.277C600.994 484.458 539.069 524.261 539.069 524.261" stroke="#263238"/>
<path d="M547.922 514.625L509.974 473.378" stroke="#263238"/>
<path d="M540.024 517.799L550.302 397.231" stroke="#263238"/>
<path d="M538.442 509.063L572.441 463.856" stroke="#263238"/>
<path d="M587.623 500.657H482.632L493.138 624.856H577.117L587.623 500.657Z" fill="#263238"/>
<path d="M336.383 356.591C350.081 349.873 364.24 344.139 378.753 339.432C399.666 332.998 424.341 338.889 424.884 345.853C425.428 352.816 421.709 349.628 416.831 357.178C411.953 364.727 414.156 382.373 407.175 398.459C400.195 414.545 379.296 422.581 379.296 422.581L336.383 356.591Z" fill="#FD6A7E" stroke="#263238" stroke-linecap="round" stroke-linejoin="round"/>
<path opacity="0.3" d="M350.33 372.149C350.33 372.149 382.515 351.773 401.282 344.795C420.049 337.817 421.122 348.012 421.122 348.012C414.788 350.336 410.671 356.472 410.923 363.212C410.923 375.252 404.901 400.189 390.268 405.337C375.634 410.484 350.33 372.149 350.33 372.149Z" fill="black"/>
<ellipse rx="16.2919" ry="17.4886" transform="matrix(-0.934826 -0.355107 -0.355107 0.934826 126.892 378.568)" fill="#FD6A7E" stroke="#263238" stroke-linecap="round" stroke-linejoin="round"/>
<path d="M351.288 565.687L333.236 619.823C332.232 622.831 329.414 624.859 326.241 624.856H298.105C295.162 624.861 292.501 623.111 291.339 620.409L278.751 591.21" fill="#FD6A7E"/>
<path opacity="0.3" d="M342.234 565.687L327.3 619.823C326.719 622.617 324.341 624.677 321.492 624.856H298.162C295.535 624.721 293.283 622.935 292.555 620.409L282.112 591.21" fill="black"/>
<path d="M351.288 565.687L333.236 619.823C332.232 622.831 329.414 624.859 326.241 624.856H298.105C295.162 624.861 292.501 623.111 291.339 620.409L278.751 591.21" stroke="#263238" stroke-linecap="round" stroke-linejoin="round"/>
<path d="M215.511 565.687L233.549 619.823C234.553 622.831 237.371 624.859 240.544 624.856H268.652C271.594 624.861 274.256 623.111 275.418 620.409L288.006 591.21" fill="#263238"/>
<path d="M215.511 565.687L233.549 619.823C234.553 622.831 237.371 624.859 240.544 624.856H268.652C271.594 624.861 274.256 623.111 275.418 620.409L288.006 591.21" stroke="#263238" stroke-linecap="round" stroke-linejoin="round"/>
<path d="M155.734 565.687L173.786 619.823C174.79 622.831 177.608 624.859 180.781 624.856H208.917C211.86 624.861 214.521 623.111 215.683 620.409L228.271 591.21" fill="#FD6A7E"/>
<path opacity="0.3" d="M168.522 565.687L180.866 619.823C181.553 622.826 183.47 624.856 185.644 624.856H204.883C206.886 624.856 208.703 623.112 209.504 620.409L221.462 591.811" fill="black"/>
<path d="M155.734 565.687L173.786 619.823C174.79 622.831 177.608 624.859 180.781 624.856H208.917C211.86 624.861 214.521 623.111 215.683 620.409L228.271 591.21" stroke="#263238" stroke-linecap="round" stroke-linejoin="round"/>
<ellipse rx="154.73" ry="140.274" transform="matrix(-1 0 0 1 252.202 461.032)" fill="#FD6A7E"/>
<path opacity="0.3" d="M145.635 365.185C136.561 383.173 131.834 403.037 131.831 423.182C131.831 500.654 201.107 563.456 286.561 563.456C318.362 563.617 349.532 554.59 376.321 537.46C349.343 573.651 303.669 597.516 251.873 597.516C168.908 597.516 101.678 536.588 101.678 461.418C101.763 423.797 118.557 389.808 145.635 365.185Z" fill="black"/>
<ellipse rx="154.73" ry="140.274" transform="matrix(-1 0 0 1 252.202 461.032)" stroke="#263238" stroke-linecap="round" stroke-linejoin="round"/>
<path d="M110.489 473.615C113.865 501.87 126.896 527.508 146.521 547.756" stroke="#FD6A7E" stroke-width="2" stroke-linecap="round" stroke-linejoin="round"/>
<path d="M113.049 430.103C110.766 439.566 109.614 449.267 109.616 459.001" stroke="#FD6A7E" stroke-width="2" stroke-linecap="round" stroke-linejoin="round"/>
<path d="M290.566 329.509C277.817 326.529 264.766 325.032 251.673 325.048C243.29 325.046 234.919 325.658 226.626 326.878" stroke="#263238" stroke-width="4" stroke-linecap="round" stroke-linejoin="round"/>
<path d="M221.848 427.429C221.848 427.429 206.829 417.234 206.285 398.473C205.742 379.713 230.431 352.373 250.271 341.105C270.111 329.838 284.601 331.997 285.131 340.033C285.66 348.069 292.64 357.192 295.315 372.735C297.99 388.278 299.077 411.342 278.15 418.849" fill="#FD6A7E"/>
<path d="M221.848 427.429C221.848 427.429 206.829 417.234 206.285 398.473C205.742 379.713 230.431 352.373 250.271 341.105C270.111 329.838 284.601 331.997 285.131 340.033C285.66 348.069 292.64 357.192 295.315 372.735C297.99 388.278 299.077 411.342 278.15 418.849" stroke="#263238" stroke-linecap="round" stroke-linejoin="round"/>
<path opacity="0.3" d="M254.162 421.409L251.086 421.867C237.898 423.768 233.263 415.16 233.649 402.234C234.179 384.003 258.31 345.395 268.509 340.033C278.708 334.671 281.912 342.178 281.912 342.178C281.912 342.178 280.482 343.136 285.503 359.794C287.82 367.487 296.446 394.312 287.906 406.209C280.353 416.719 266.321 419.593 254.162 421.409Z" fill="black"/>
<path opacity="0.3" d="M211.435 402.935H211.635C212.013 402.885 212.356 402.686 212.587 402.383C212.818 402.079 212.918 401.696 212.865 401.319C212.71 400.219 212.619 399.112 212.593 398.001C212.307 387.992 220.475 373.621 233.907 360.366C234.472 359.81 234.478 358.9 233.921 358.336C233.364 357.771 232.455 357.765 231.89 358.321C217.7 372.335 209.418 387.191 209.733 398.073C209.763 399.288 209.859 400.5 210.019 401.705C210.118 402.41 210.722 402.934 211.435 402.935Z" fill="black"/>
<path opacity="0.3" d="M219.13 420.179C219.683 420.181 220.187 419.865 220.426 419.367C220.664 418.868 220.594 418.277 220.246 417.849C217.889 414.961 216.006 411.718 214.667 408.24C214.387 407.501 213.561 407.13 212.822 407.41C212.083 407.691 211.712 408.516 211.992 409.255C213.438 413.019 215.475 416.529 218.029 419.65C218.298 419.982 218.703 420.176 219.13 420.179Z" fill="black"/>
<ellipse opacity="0.3" rx="31.6302" ry="41.8393" transform="matrix(-0.242091 -0.970253 -0.970253 0.242091 363.894 478.047)" fill="black"/>
<ellipse rx="31.6302" ry="41.8393" transform="matrix(-0.242091 -0.970253 -0.970253 0.242091 365.907 474.969)" fill="#FD6A7E" stroke="#263238" stroke-linecap="round" stroke-linejoin="round"/>
<path fill-rule="evenodd" clip-rule="evenodd" d="M378.538 469.854C378.281 473.686 379.754 476.918 381.814 477.004C383.874 477.09 385.776 474.144 386.105 470.312C386.434 466.48 384.889 463.234 382.815 463.162C380.741 463.091 378.796 466.008 378.538 469.854Z" stroke="#263238" stroke-linecap="round" stroke-linejoin="round"/>
<path fill-rule="evenodd" clip-rule="evenodd" d="M350.187 476.961C349.929 480.807 351.403 484.025 353.463 484.11C355.522 484.196 357.425 481.251 357.754 477.404C358.083 473.558 356.538 470.34 354.464 470.255C352.39 470.169 350.487 473.114 350.187 476.961Z" stroke="#263238" stroke-linecap="round" stroke-linejoin="round"/>
<path d="M303.397 486.899C303.699 489.651 304.343 492.356 305.314 494.949C313.525 517.127 343.249 526.722 372.616 517.17" stroke="#263238" stroke-width="3" stroke-linecap="round" stroke-linejoin="round"/>
<path d="M308.189 484.797H299.077" stroke="#263238" stroke-width="3" stroke-linecap="round" stroke-linejoin="round"/>
<path d="M366.236 425.427C367.238 429.588 369.798 432.577 371.958 432.033C374.118 431.49 375.062 427.743 374.047 423.54C373.031 419.336 370.485 416.39 368.325 416.919C366.165 417.448 365.221 421.252 366.236 425.427Z" fill="#263238" stroke="#263238" stroke-linecap="round" stroke-linejoin="round"/>
<ellipse rx="7.77885" ry="4.01944" transform="matrix(-0.234294 -0.972166 -0.972166 0.234294 343.764 430.234)" fill="#263238" stroke="#263238" stroke-linecap="round" stroke-linejoin="round"/>
<path d="M300.465 583.103L284.73 620.423C283.576 623.152 280.9 624.926 277.936 624.928H249.327C246.392 624.923 243.736 623.184 242.561 620.495L225.396 580.844H226.14" fill="#FD6A7E"/>
<path opacity="0.3" d="M267.222 578.341C276.291 578.341 286.847 579.528 295.387 577.555L280.682 620.352C279.964 622.9 277.705 624.711 275.06 624.856H251.487C248.875 624.711 246.639 622.934 245.908 620.423L231.675 576.768L237.397 577.555C255.549 579.528 255.077 578.341 267.222 578.341Z" fill="black"/>
<path d="M300.465 583.103L284.73 620.423C283.576 623.152 280.9 624.926 277.936 624.928H249.327C246.392 624.923 243.736 623.184 242.561 620.495L225.396 580.844H226.14" stroke="#263238" stroke-linecap="round" stroke-linejoin="round"/>
<path d="M506 1.62914L426.986 115.575C426.986 115.575 420.228 131.704 411.914 143.672C403.6 155.64 380.286 167.608 380.286 167.608C380.286 167.608 378.214 189.971 371.457 197.778C364.7 205.585 350.143 200.909 350.143 200.909C350.143 200.909 343.9 207.673 337.143 210.79C330.386 213.907 309.6 202.468 309.6 202.468C309.6 202.468 328.3 222.758 330.9 229.521C333.5 236.284 338.186 242.004 329.871 248.252C321.557 254.501 312.186 245.65 312.186 245.65C312.186 245.65 316.357 259.176 304.4 261.779C292.443 264.381 279.414 238.357 274.214 229.521C269.014 220.684 253.943 187.369 251.357 185.81C248.771 184.251 245.128 175.93 250.328 168.123C255.528 160.315 292.414 110.37 296.571 106.81C300.728 103.25 380.286 84.3611 380.286 84.3611L410.443 1.11439" fill="white"/>
<path opacity="0.2" d="M418.857 116.819C418.857 116.819 410.286 142.557 401 147.561C391.714 152.566 338.857 166.149 318.143 163.29C297.428 160.43 286 152.566 286 152.566C286 152.566 274.571 167.579 269.571 172.584C266.09 175.82 261.946 178.26 257.428 179.733C257.428 179.733 282.286 242.232 300.157 261.578C301.546 262.008 303.02 262.077 304.443 261.779C316.4 259.176 312.228 245.65 312.228 245.65C312.228 245.65 321.586 254.486 329.914 248.252C338.243 242.018 333.543 236.284 330.943 229.521C328.343 222.758 309.571 202.468 309.571 202.468C309.571 202.468 330.357 213.907 337.114 210.79C343.871 207.673 350.114 200.895 350.114 200.895C350.114 200.895 364.671 205.585 371.428 197.778C378.186 189.971 380.257 167.608 380.257 167.608C380.257 167.608 403.643 155.64 411.971 143.672C420.3 131.704 427.043 115.575 427.043 115.575L459.6 68.6326L418.857 116.819Z" fill="black"/>
<path d="M506 1.62914L426.986 115.575C426.986 115.575 420.228 131.704 411.914 143.672C403.6 155.64 380.286 167.608 380.286 167.608C380.286 167.608 378.214 189.971 371.457 197.778C364.7 205.585 350.143 200.909 350.143 200.909C350.143 200.909 343.9 207.673 337.143 210.79C330.386 213.907 309.6 202.468 309.6 202.468C309.6 202.468 328.3 222.758 330.9 229.521C333.5 236.284 338.186 242.004 329.871 248.252C321.557 254.501 312.186 245.65 312.186 245.65C312.186 245.65 316.357 259.176 304.4 261.779C292.443 264.381 279.414 238.357 274.214 229.521C269.014 220.684 253.943 187.369 251.357 185.81C248.771 184.251 245.128 175.93 250.328 168.123C255.528 160.315 292.414 110.37 296.571 106.81C300.728 103.25 380.286 84.3611 380.286 84.3611L410.443 1.11439" stroke="#263238" stroke-linecap="round" stroke-linejoin="round"/>
<path d="M235.757 305.475L237.829 313.282L270.057 305.475L300.214 226.39L280.457 219.626L235.757 305.475Z" fill="white" stroke="#263238" stroke-linecap="round" stroke-linejoin="round"/>
<path d="M245.629 200.38L290.329 217.038L268.5 315.885L216 299.756L245.629 200.38Z" fill="white" stroke="#263238" stroke-linecap="round" stroke-linejoin="round"/>
<path d="M217.757 293.851L264.343 307.563L284.614 219.626L243.8 206.5L217.757 293.851Z" fill="#FD6A7E" stroke="#263238" stroke-linecap="round" stroke-linejoin="round"/>
<path d="M243.614 228.248C241.587 227.711 239.468 227.614 237.4 227.962L225.229 268.785C226.99 270.503 229.157 271.748 231.529 272.403C241.071 275.033 251.529 267.269 254.871 255.073C258.214 242.876 253.143 230.865 243.614 228.248Z" fill="white" stroke="#263238" stroke-linecap="round" stroke-linejoin="round"/>
<path d="M241.886 235.012C241.76 234.955 241.689 234.819 241.714 234.683L242.257 232.567C242.324 232.386 242.305 232.184 242.205 232.02C242.104 231.855 241.934 231.746 241.743 231.723L239.471 231.18C239.291 231.106 239.087 231.123 238.921 231.224C238.754 231.326 238.646 231.5 238.629 231.694L238.186 233.882C238.151 234.017 238.025 234.108 237.886 234.096C237.112 234.017 236.331 234.017 235.557 234.096L231.4 248.066C234.643 251.441 239.7 253.128 239.029 255.959C238.643 257.561 237.186 258.819 234.629 258.247C233.547 258.102 232.581 257.493 231.983 256.579C231.385 255.665 231.214 254.536 231.514 253.485L231.643 252.913C231.714 252.599 231.529 252.342 231.086 252.241L230.214 252.027L227.743 260.292C228.736 261.195 229.896 261.894 231.157 262.351C231.289 262.409 231.361 262.553 231.329 262.694L230.814 264.51C230.734 264.69 230.748 264.898 230.85 265.067C230.953 265.235 231.132 265.342 231.329 265.353L233.686 265.925C233.854 266.015 234.053 266.021 234.227 265.943C234.4 265.864 234.527 265.71 234.571 265.525L234.957 263.723C235.001 263.587 235.128 263.494 235.271 263.494C240.3 264.024 243.714 261.55 244.771 257.146C245.6 253.628 244.414 250.64 240.743 247.823C237.386 245.278 233.843 244.02 234.457 241.417C234.886 239.616 236.529 238.786 238.743 239.315C239.852 239.494 240.827 240.149 241.413 241.109C241.998 242.069 242.134 243.237 241.786 244.306L241.686 244.706C241.686 244.949 241.829 245.164 242.271 245.278L246.457 246.279C246.638 246.346 246.839 246.327 247.003 246.226C247.168 246.126 247.277 245.956 247.3 245.764L247.614 244.434C248.571 240.245 246.557 236.685 241.886 235.012Z" fill="#263238"/>
<path d="M282.529 148.348C282.529 148.348 288.771 157.713 289.814 166.049C290.7 173.154 289.04 180.344 285.129 186.339C282.014 191.015 278.9 195.176 276.3 202.468C273.7 209.76 273.186 220.155 269.543 225.346C265.9 230.536 263.829 235.741 269.014 240.431C274.2 245.121 287.729 244.592 295.014 231.065C302.3 217.539 306.971 202.968 311.643 197.764C316.314 192.559 331.4 180.605 331.4 180.605C331.4 180.605 372.457 174.886 380.257 167.608C388.057 160.33 394.814 140.555 394.814 140.555" fill="white"/>
<path opacity="0.2" d="M391.714 147.561C391.714 147.561 369.571 161.86 352.429 166.149C335.286 170.439 324.571 170.439 318.143 179.018C311.714 187.597 305.286 214.765 296.714 219.769C288.143 224.774 286.714 206.9 274.571 210.475L274.171 210.618C272.986 216.195 271.943 221.914 269.543 225.36C265.9 230.565 263.829 235.755 269.014 240.445C274.2 245.135 287.729 244.606 295.014 231.079C302.3 217.553 306.971 202.983 311.643 197.778C316.314 192.573 331.4 180.62 331.4 180.62C331.4 180.62 372.457 174.9 380.257 167.622C384.971 163.218 389.3 154.267 391.986 147.861L391.714 147.561Z" fill="black"/>
<path d="M282.529 148.348C282.529 148.348 288.771 157.713 289.814 166.049C290.7 173.154 289.04 180.344 285.129 186.339C282.014 191.015 278.9 195.176 276.3 202.468C273.7 209.76 273.186 220.155 269.543 225.346C265.9 230.536 263.829 235.741 269.014 240.431C274.2 245.121 287.729 244.592 295.014 231.065C302.3 217.539 306.971 202.968 311.643 197.764C316.314 192.559 331.4 180.605 331.4 180.605C331.4 180.605 372.457 174.886 380.257 167.608C388.057 160.33 394.814 140.555 394.814 140.555" stroke="#263238" stroke-linecap="round" stroke-linejoin="round"/>
<path d="M266.414 174.371C266.414 174.371 279.943 181.649 289.814 173.327" stroke="#263238" stroke-linecap="round" stroke-linejoin="round"/>
<path d="M312.157 245.65L300.214 222.758" stroke="#263238" stroke-linecap="round" stroke-linejoin="round"/>
<path d="M350.114 200.909C350.114 200.909 359.471 193.102 358.943 175.93" stroke="#263238" stroke-linecap="round" stroke-linejoin="round"/>
<path d="M66.0232 624.8H632" stroke="#263238" stroke-linecap="round" stroke-linejoin="round"/>
<path d="M16 624.8H41.7262" stroke="#263238" stroke-linecap="round" stroke-linejoin="round"/>
</svg>
