<?xml version="1.0" encoding="UTF-8"?>
<svg width="188px" height="50px" viewBox="0 0 188 50" version="1.1" xmlns="http://www.w3.org/2000/svg" xmlns:xlink="http://www.w3.org/1999/xlink">
    <title>Group 10</title>
    <defs>
        <polygon id="path-1" points="0 0.463578947 27.62193 0.463578947 27.62193 39.3330526 0 39.3330526"></polygon>
        <polygon id="path-3" points="0 50 188 50 188 0 0 0"></polygon>
    </defs>
    <g id="mobile" stroke="none" stroke-width="1" fill="none" fill-rule="evenodd">
        <g id="Desktop-HD" transform="translate(-91.000000, -16.000000)">
            <g id="Group-10" transform="translate(91.000000, 16.000000)">
                <g id="Group-3" transform="translate(0.000000, 10.000000)">
                    <mask id="mask-2" fill="white">
                        <use xlink:href="#path-1"></use>
                    </mask>
                    <g id="Clip-2"></g>
                    <path d="M7.77483,14.5141053 C7.77483,18.0523509 10.38373,20.8727018 13.70873,20.8727018 C15.34533,20.8727018 16.72643,20.2572632 17.85203,19.026386 C19.02873,17.7962105 19.59083,16.3084912 19.59083,14.5141053 C19.59083,10.8214737 16.98193,8.05235088 13.70873,8.05235088 C10.38373,8.05235088 7.77483,10.8214737 7.77483,14.5141053 L7.77483,14.5141053 Z M-7e-05,39.3330526 L-7e-05,1.12954386 L7.67263,1.12954386 L7.67263,2.92392982 C9.76983,1.28322807 12.22473,0.463578947 14.98763,0.463578947 C18.56813,0.463578947 21.58583,1.79621053 23.99033,4.46287719 C26.39413,7.12954386 27.62193,10.4628772 27.62193,14.4628772 C27.62193,18.4109474 26.39413,21.7442807 23.99033,24.4621754 C21.58583,27.1288421 18.56813,28.4621754 14.98763,28.4621754 C12.27653,28.4621754 9.87203,27.6418246 7.67263,26.0004211 L7.67263,39.3330526 L-7e-05,39.3330526 Z" id="Fill-1" fill="#222222" mask="url(#mask-2)"></path>
                </g>
                <mask id="mask-4" fill="white">
                    <use xlink:href="#path-3"></use>
                </mask>
                <g id="Clip-5"></g>
                <path d="M30.8707969,38 L38.1292031,38 L38.1292031,11.3330502 L30.8707969,11.3330502 L30.8707969,38 Z M30,4.71877078 C30,3.33345645 30.4350673,2.2056955 31.2575234,1.33338258 C32.1289824,0.461771441 33.1931425,0 34.4996689,0 C35.8068575,0 36.8710176,0.461771441 37.6934736,1.33338258 C38.5649327,2.2056955 39,3.33345645 39,4.71877078 C39,6.10268154 38.5649327,7.23114427 37.6934736,8.10275541 C36.8710176,8.97436655 35.8068575,9.43613799 34.4996689,9.43613799 C33.1931425,9.43613799 32.1289824,8.97436655 31.2575234,8.10275541 C30.4350673,7.23114427 30,6.10268154 30,4.71877078 L30,4.71877078 Z" id="Fill-4" fill="#222222" mask="url(#mask-4)"></path>
                <path d="M49.8140757,24.8599904 C49.8140757,28.3502547 52.3689542,31.1323595 55.6251047,31.1323595 C57.2278163,31.1323595 58.5803184,30.5252667 59.7326529,29.3110811 C60.8843019,28.0975878 61.4361337,26.6300431 61.4361337,24.8599904 C61.4361337,21.2174337 58.8312133,18.4858624 55.6251047,18.4858624 C52.3689542,18.4858624 49.8140757,21.2174337 49.8140757,24.8599904 M45.50636,14.9450647 C47.8603854,12.3145601 50.8162846,11 54.3226445,11 C56.9776068,11 59.3823597,11.8085341 61.5362175,13.4269866 L61.5362175,11.6569339 L69,11.6569339 L69,37.4047285 C69,40.9967518 67.7475817,43.9809901 65.1927032,46.3581356 C62.6878666,48.7858144 59.5825272,50 55.8252723,50 C52.8700586,50 50.1650545,49.2419993 47.7603016,47.6733879 C45.4062762,46.1047764 43.8028791,44.1831236 43.0015233,41.8052859 L50.4152639,40.0352331 C51.2166197,41.6536857 53.3204357,42.8173379 55.6751466,42.8173379 C58.9312971,42.8173379 61.5362175,40.5405669 61.5362175,37.5064875 L61.5362175,36.1400096 C59.431716,37.8096878 57.0276487,38.6189141 54.3226445,38.6189141 C50.8162846,38.6189141 47.8603854,37.3036618 45.50636,34.6731571 C43.151649,31.9921191 42,28.7039884 42,24.809457 C42,20.8637001 43.151649,17.5755693 45.50636,14.9450647" id="Fill-6" fill="#222222" mask="url(#mask-4)"></path>
                <path d="M80.8140757,24.8599904 C80.8140757,28.3502547 83.3689542,31.1323595 86.6251047,31.1323595 C88.2285018,31.1323595 89.5810039,30.5252667 90.7319674,29.3110811 C91.8849874,28.0975878 92.4361337,26.6300431 92.4361337,24.8599904 C92.4361337,21.2174337 89.8312133,18.4858624 86.6251047,18.4858624 C83.3689542,18.4858624 80.8140757,21.2174337 80.8140757,24.8599904 M76.50636,14.9450647 C78.8603854,12.3145601 81.8162846,11 85.3226445,11 C87.9776068,11 90.3823597,11.8085341 92.535532,13.4269866 L92.535532,11.6569339 L100,11.6569339 L100,37.4047285 C100,40.9967518 98.7475817,43.9809901 96.1927032,46.3581356 C93.6885521,48.7858144 90.5825272,50 86.8252723,50 C83.8700586,50 81.1650545,49.2419993 78.7603016,47.6733879 C76.4062762,46.1047764 74.8028791,44.1831236 74.0015233,41.8052859 L81.4152639,40.0352331 C82.2166197,41.6536857 84.3204357,42.8173379 86.6751466,42.8173379 C89.9312971,42.8173379 92.535532,40.5405669 92.535532,37.5064875 L92.535532,36.1400096 C90.4324016,37.8096878 88.0276487,38.6189141 85.3226445,38.6189141 C81.8162846,38.6189141 78.8603854,37.3036618 76.50636,34.6731571 C74.151649,31.9921191 73,28.7039884 73,24.809457 C73,20.8637001 74.151649,17.5755693 76.50636,14.9450647" id="Fill-7" fill="#222222" mask="url(#mask-4)"></path>
                <path d="M112.849844,37.3200955 L103,11 L110.750551,11 L116.400441,27.3733652 L122.250133,11 L130,11 L118.950658,40.278288 C116.550293,46.3991918 112.800578,49 106.400061,49 L105.500266,49 L105.500266,41.7064291 L106.449327,41.7064291 C109.699536,41.7064291 111.750247,40.3801984 112.699992,37.727737 L112.849844,37.3200955 Z" id="Fill-8" fill="#222222" mask="url(#mask-4)"></path>
                <path d="M143.242383,3.0102242 C144.088367,3.00953067 144.93366,3.01507896 145.779644,3.00883713 C149.220208,2.98109566 151.919759,4.40145903 153.789901,7.28657213 C154.285751,8.05154322 154.658675,8.22423388 155.540569,7.88994915 C160.476971,6.021561 165.454118,6.01878685 170.399497,7.86636889 C171.229597,8.17707338 171.665365,8.14031593 172.182623,7.3274908 C174.065196,4.36331451 176.822758,2.96237016 180.324094,3.00536945 C182.27918,3.0289497 184.235647,3.03033677 186.190732,3.00328884 C187.379944,2.98664395 187.962119,3.52829619 187.958666,4.7156312 C187.95245,7.15688075 188.084355,9.60853334 187.906871,12.0366057 C187.655493,15.4730805 185.859935,18.0350055 182.78677,19.543448 C181.708055,20.0726166 181.735679,20.4304816 182.246722,21.3882559 C187.116826,30.5027166 182.437327,41.5667092 172.58248,44.5461433 C166.106734,46.5046912 159.698666,46.4790304 153.240875,44.5017569 C143.569727,41.5410483 138.933046,30.5179744 143.675389,21.5262698 C144.209912,20.5116254 144.306596,20.0975839 143.090451,19.4803362 C139.875023,17.8477506 138.143001,15.0944094 138.028361,11.4380834 C137.960682,9.26453909 138.040101,7.08613999 138.004881,4.91120858 C137.983472,3.56782779 138.56841,2.95474126 139.913006,3.0025953 C141.021417,3.0421269 142.132591,3.0102242 143.242383,3.0102242" id="Fill-9" fill="#FD6A7E" mask="url(#mask-4)"></path>
            </g>
        </g>
    </g>
</svg>