<svg width="27" height="27" viewBox="0 0 27 27" fill="none" xmlns="http://www.w3.org/2000/svg">
<path fill-rule="evenodd" clip-rule="evenodd" d="M20.4768 24.417C20.2645 24.417 20.0522 24.3109 19.8398 24.2047L13.5768 19.4275L7.3137 24.2047C6.99523 24.417 6.57062 24.5232 6.146 24.3109C5.82754 24.0986 5.61523 23.7801 5.61523 23.3554V5.30804C5.61523 4.14026 6.57062 3.18481 7.73831 3.18481H19.4152C20.5829 3.18481 21.5383 4.14026 21.5383 5.30804V23.3554C21.5383 23.7801 21.326 24.0986 20.9014 24.3109C20.7952 24.417 20.6891 24.417 20.4768 24.417ZM7.73831 5.30804V21.2322L12.9399 17.1981C13.3645 16.8796 13.8952 16.8796 14.2137 17.1981L19.4152 21.2322V5.30804H7.73831Z" fill="#262626" fill-opacity="0.86"/>
</svg>
