<svg width="20" height="18" viewBox="0 0 20 18" fill="none" xmlns="http://www.w3.org/2000/svg">
<path fill-rule="evenodd" clip-rule="evenodd" d="M8.47087 12.1802H8.05378C7.91475 12.1802 7.77889 12.177 7.64618 12.1707C7.51347 12.1643 7.35864 12.1484 7.1817 12.123C7.09323 12.2246 6.90049 12.396 6.60347 12.6372C6.30645 12.8784 5.95573 13.1323 5.55128 13.3989C5.14684 13.6655 4.72028 13.9067 4.2716 14.1226C3.82291 14.3384 3.40267 14.478 3.01087 14.5415H2.99191L2.95399 14.551C2.92871 14.5574 2.90344 14.5605 2.87816 14.5605C2.75177 14.5605 2.6475 14.5161 2.56535 14.4272C2.48319 14.3384 2.44212 14.2305 2.44212 14.1035C2.44212 14.0654 2.44528 14.0337 2.4516 14.0083C2.45791 13.9829 2.46739 13.9575 2.48003 13.9321H2.46107C2.61274 13.6782 2.82444 13.2878 3.09618 12.761C3.36792 12.2341 3.50378 11.7485 3.50378 11.3042V11.2661C2.98559 10.9995 2.53059 10.6694 2.13878 10.2759C1.74697 9.88232 1.42469 9.45069 1.17191 8.98096C0.919129 8.51123 0.729547 8.01612 0.603158 7.49561C0.476768 6.97509 0.413574 6.46094 0.413574 5.95312C0.413574 5.12793 0.618954 4.35352 1.02972 3.62988C1.44049 2.90625 2.00607 2.27783 2.72649 1.74463C3.44691 1.21142 4.28739 0.789308 5.24795 0.478271C6.20851 0.167235 7.23857 0.0117188 8.33816 0.0117188C9.42511 0.0117188 10.4457 0.167235 11.3999 0.478271C12.3542 0.789308 13.1852 1.21142 13.8929 1.74463C14.6007 2.27783 15.16 2.90625 15.5708 3.62988C15.9815 4.35352 16.1869 5.12793 16.1869 5.95312C16.1995 6.87989 16.01 7.72729 15.6182 8.49536C15.2263 9.26343 14.6829 9.92041 13.9877 10.4663C13.2926 11.0122 12.4711 11.4343 11.5232 11.7327C10.5752 12.031 9.55782 12.1802 8.47087 12.1802ZM6.68878 10.8662L7.35232 10.9233C7.64302 10.9614 7.90843 10.9805 8.14857 10.9805H8.50878C9.43143 10.9805 10.2877 10.8567 11.0776 10.6091C11.8676 10.3616 12.5501 10.0125 13.1251 9.56177C13.7002 9.11108 14.152 8.57788 14.4807 7.96216C14.8093 7.34643 14.9736 6.67676 14.9736 5.95312C14.9736 5.29297 14.7998 4.67725 14.4522 4.10596C14.1046 3.53467 13.6339 3.03638 13.0398 2.61108C12.4458 2.18579 11.7443 1.84937 10.9354 1.60181C10.1266 1.35425 9.2608 1.23047 8.33816 1.23047C7.41551 1.23047 6.5466 1.35425 5.73139 1.60181C4.91617 1.84937 4.20208 2.18579 3.5891 2.61108C2.97611 3.03638 2.49583 3.53467 2.14826 4.10596C1.80069 4.67725 1.62691 5.29297 1.62691 5.95312C1.62691 6.74024 1.82281 7.53369 2.21462 8.3335C2.60642 9.1333 3.2194 9.74902 4.05357 10.1807L4.71712 10.5234L4.66024 11.2661L4.62232 11.5994C4.59705 11.8215 4.47698 12.2246 4.26212 12.8086C4.60337 12.6055 4.94145 12.3674 5.27639 12.0945C5.61132 11.8215 5.82302 11.6279 5.91149 11.5137L6.68878 10.8662ZM19.8269 10.8662C19.8269 11.7549 19.612 12.5388 19.1823 13.218C18.7526 13.8972 18.0891 14.4653 17.1917 14.9224V14.9604C17.1917 15.354 17.2675 15.811 17.4192 16.3315C17.5709 16.8521 17.7099 17.2202 17.8363 17.436C17.8489 17.4614 17.8584 17.4868 17.8647 17.5122C17.871 17.5376 17.8742 17.563 17.8742 17.5884C17.8742 17.7026 17.8363 17.7979 17.7604 17.874C17.6846 17.9502 17.5898 17.9883 17.4761 17.9883H17.3623C16.6925 17.874 16.0163 17.5313 15.3338 16.96C14.6513 16.3887 14.2405 16.0142 14.1015 15.8364C13.9498 15.8491 13.8171 15.8586 13.7034 15.865C13.5896 15.8713 13.4695 15.8745 13.3432 15.8745H12.9829C12.3636 15.8745 11.7791 15.8206 11.2293 15.7126C10.6795 15.6047 10.1645 15.446 9.6842 15.2366C9.20392 15.0271 8.76788 14.7732 8.37607 14.4749C7.98427 14.1765 7.6367 13.8433 7.33337 13.4751C7.35864 13.4497 7.69041 13.437 8.32868 13.437C8.96695 13.437 9.21656 13.4434 9.07753 13.4561C9.59573 13.8623 10.1708 14.1638 10.8027 14.3606C11.4347 14.5574 12.1614 14.6558 12.9829 14.6558H13.3526C13.5991 14.6558 13.7855 14.6431 13.9119 14.6177L14.5565 14.5225L14.9072 14.9985C15.141 15.3159 15.555 15.6904 16.149 16.1221C16.0984 15.9316 16.0605 15.5571 16.0352 14.9985L15.9973 14.1606L16.585 13.875C17.3055 13.5068 17.8236 13.0784 18.1396 12.5896C18.4556 12.1008 18.6136 11.5264 18.6136 10.8662C18.6136 10.333 18.5219 9.86963 18.3387 9.47607C18.1554 9.08252 17.8047 8.70166 17.2865 8.3335C17.3497 8.13037 17.4097 7.91455 17.4666 7.68604C17.5235 7.45752 17.5645 7.23535 17.5898 7.01953C18.3861 7.48926 18.958 8.0415 19.3056 8.67627C19.6531 9.31104 19.8269 10.041 19.8269 10.8662Z" fill="#4A4A4A"/>
</svg>
