<svg width="22" height="20" viewBox="0 0 22 20" fill="none" xmlns="http://www.w3.org/2000/svg">
<path fill-rule="evenodd" clip-rule="evenodd" d="M17.154 18.75V10.8008L18.5263 9.60938V18.75C18.5263 19.1016 18.3941 19.3978 18.1296 19.6387C17.8652 19.8796 17.54 20 17.154 20H1.37232C1.00065 20 0.679014 19.8796 0.407407 19.6387C0.135801 19.3978 0 19.1016 0 18.75V3.125C0 2.78646 0.135801 2.49349 0.407407 2.24609C0.679014 1.9987 1.00065 1.875 1.37232 1.875H12.3723L12.4152 1.91406L11.0214 3.125H1.37232V18.75H17.154ZM20.9064 0.800781C21.2638 1.11328 21.5318 1.43229 21.7105 1.75781C21.8892 2.08333 21.9857 2.42187 22 2.77344C22 3.11198 21.9142 3.45052 21.7427 3.78906C21.5711 4.12761 21.3067 4.46614 20.9493 4.80469C20.7921 4.96094 20.2274 5.47526 19.2554 6.34766C18.2833 7.22006 17.2398 8.15429 16.1248 9.15039C15.0097 10.1465 13.9841 11.0677 13.0478 11.9141C12.1114 12.7604 11.5932 13.2292 11.4932 13.3203C11.4503 13.3464 11.411 13.3724 11.3752 13.3984C11.3395 13.4245 11.3002 13.444 11.2573 13.457C11.0858 13.4961 10.7355 13.5937 10.2066 13.75C9.67771 13.9063 9.12736 14.0658 8.55556 14.2285C7.98375 14.3913 7.47629 14.541 7.03314 14.6777C6.58999 14.8145 6.36127 14.8828 6.34698 14.8828C6.31839 14.8828 6.2898 14.8861 6.26121 14.8926C6.23262 14.8991 6.20403 14.9023 6.17544 14.9023C6.10396 14.9023 6.03249 14.8893 5.96101 14.8633C5.88954 14.8372 5.82521 14.7982 5.76803 14.7461C5.69656 14.681 5.64652 14.5996 5.61793 14.502C5.58934 14.4043 5.58934 14.3099 5.61793 14.2188C5.61793 14.2057 5.68583 14.0007 5.82164 13.6035C5.95744 13.2064 6.11111 12.7507 6.28265 12.2363C6.45419 11.722 6.61858 11.2175 6.77583 10.7227C6.93307 10.2279 7.04743 9.8763 7.11891 9.66797C7.1332 9.62891 7.15107 9.58984 7.17251 9.55078C7.19396 9.51172 7.22612 9.47266 7.26901 9.43359L8.69493 8.13477C9.64555 7.26888 10.6998 6.31185 11.8577 5.26367C13.0156 4.21549 14.0877 3.23894 15.0741 2.33398C16.0604 1.42903 16.5965 0.944011 16.6823 0.878906C16.7966 0.774739 17.0504 0.602215 17.4435 0.361328C17.8366 0.120442 18.3119 0 18.8694 0C19.2411 0 19.5984 0.0683587 19.9415 0.205078C20.2846 0.341798 20.6062 0.540363 20.9064 0.800781ZM19.963 3.92578C20.1917 3.71745 20.3596 3.51888 20.4669 3.33008C20.5741 3.14128 20.6277 2.96224 20.6277 2.79297C20.6134 2.6237 20.5526 2.44792 20.4454 2.26562C20.3382 2.08333 20.1774 1.90104 19.963 1.71875C19.7771 1.5625 19.5949 1.44531 19.4162 1.36719C19.2375 1.28906 19.0552 1.25 18.8694 1.25C18.5549 1.25 18.2797 1.32812 18.0439 1.48438C17.808 1.64063 17.6758 1.73177 17.6472 1.75781L13.348 5.67383C12.283 6.64389 11.2609 7.57161 10.2817 8.45703C9.30246 9.34245 8.66992 9.91536 8.38402 10.1758C8.28395 10.5013 8.13743 10.9603 7.94444 11.5527C7.75146 12.1452 7.56205 12.7148 7.37622 13.2617C7.94802 13.0924 8.55913 12.9134 9.20955 12.7246C9.85998 12.5358 10.3424 12.3958 10.6569 12.3047L11.0858 11.9336C12.4581 10.6966 13.6767 9.59961 14.7417 8.64258C15.8067 7.68554 16.7108 6.87175 17.4542 6.20117C18.1975 5.5306 18.7801 5.00651 19.2018 4.62891C19.6235 4.2513 19.8772 4.01693 19.963 3.92578Z" fill="#222222"/>
</svg>
