<svg width="19" height="17" viewBox="0 0 19 17" fill="none" xmlns="http://www.w3.org/2000/svg">
<path fill-rule="evenodd" clip-rule="evenodd" d="M18.6697 3.8435C18.6697 3.2947 18.2233 2.8483 17.6745 2.8483H12.4889V1.5099C12.4889 0.752098 11.8723 0.135498 11.1145 0.135498H7.68532C6.92752 0.135498 6.31092 0.752098 6.31092 1.5099V2.8483H1.12572C0.576718 2.8483 0.130118 3.2945 0.130118 3.8425L0.120118 8.5765C0.119918 8.7301 0.207518 8.8703 0.345518 8.9373C0.556718 9.0397 0.774118 9.1343 0.992518 9.2281V15.6697C0.992518 16.2183 1.43892 16.6649 1.98772 16.6649H16.8117C17.3605 16.6649 17.8069 16.2185 17.8069 15.6697V9.1317C18.0307 9.0283 18.2511 8.9213 18.4659 8.8081C18.5975 8.7387 18.6797 8.6021 18.6793 8.4535L18.6697 3.8435ZM7.11092 1.5099C7.11092 1.1931 7.36872 0.935498 7.68532 0.935498H11.1145C11.4259 0.935498 11.6889 1.1985 11.6889 1.5099V2.8483H7.11092V1.5099ZM16.8119 15.8649C16.9159 15.8649 17.0071 15.7737 17.0071 15.6697H17.0069V9.4723C15.2937 10.1443 13.3479 10.5495 11.1989 10.6801V11.2411C11.1989 11.6433 10.8717 11.9709 10.4695 11.9709H8.33052C7.92812 11.9709 7.60072 11.6435 7.60072 11.2411V10.6861C5.47932 10.5685 3.53392 10.1849 1.79272 9.5455V15.6697C1.79272 15.7755 1.88212 15.8649 1.98792 15.8649H16.8119ZM8.40072 11.1709V9.8437H10.3991V11.1709H8.40072ZM11.1991 9.7741V9.8757C13.7507 9.7153 15.9973 9.1583 17.8791 8.2103L17.8699 3.8441C17.8699 3.7375 17.7805 3.6483 17.6747 3.6483H1.12592C1.01992 3.6483 0.930318 3.7377 0.930318 3.8435L0.920918 8.3245C2.84892 9.2185 5.09512 9.7407 7.60072 9.8843V9.7741C7.60072 9.3715 7.92812 9.0439 8.33052 9.0439H10.4697C10.8719 9.0439 11.1991 9.3713 11.1991 9.7741Z" fill="#222222"/>
<path d="M18.6697 3.8435H18.5697V3.84371L18.6697 3.8435ZM12.4889 2.8483H12.3889V2.9483H12.4889V2.8483ZM6.31092 2.8483V2.9483H6.41092V2.8483H6.31092ZM0.130118 3.8425L0.230118 3.84271V3.8425H0.130118ZM0.120118 8.5765L0.0201177 8.57629L0.0201176 8.57637L0.120118 8.5765ZM0.345518 8.9373L0.301843 9.02726L0.301891 9.02728L0.345518 8.9373ZM0.992518 9.2281H1.09252V9.16221L1.03198 9.13621L0.992518 9.2281ZM17.8069 9.1317L17.765 9.04092L17.7069 9.06774V9.1317H17.8069ZM18.4659 8.8081L18.5125 8.89656L18.5126 8.89655L18.4659 8.8081ZM18.6793 8.4535L18.5793 8.45371L18.5793 8.45377L18.6793 8.4535ZM11.6889 2.8483V2.9483H11.7889V2.8483H11.6889ZM7.11092 2.8483H7.01092V2.9483H7.11092V2.8483ZM17.0071 15.6697H17.1071V15.5697H17.0071V15.6697ZM17.0069 15.6697H16.9069V15.7697H17.0069V15.6697ZM17.0069 9.4723H17.1069V9.32565L16.9704 9.3792L17.0069 9.4723ZM11.1989 10.6801L11.1929 10.5803L11.0989 10.586V10.6801H11.1989ZM7.60072 10.6861H7.70072V10.5915L7.60625 10.5863L7.60072 10.6861ZM1.79272 9.5455L1.82719 9.45163L1.69272 9.40225V9.5455H1.79272ZM8.40072 9.8437V9.7437H8.30072V9.8437H8.40072ZM8.40072 11.1709H8.30072V11.2709H8.40072V11.1709ZM10.3991 9.8437H10.4991V9.7437H10.3991V9.8437ZM10.3991 11.1709V11.2709H10.4991V11.1709H10.3991ZM11.1991 9.8757H11.0991V9.98218L11.2054 9.9755L11.1991 9.8757ZM17.8791 8.2103L17.9241 8.29961L17.9792 8.27183L17.9791 8.21009L17.8791 8.2103ZM17.8699 3.8441H17.7699V3.84431L17.8699 3.8441ZM0.930318 3.8435L1.03032 3.84371V3.8435H0.930318ZM0.920918 8.3245L0.820918 8.32429L0.820784 8.38829L0.878851 8.41522L0.920918 8.3245ZM7.60072 9.8843L7.595 9.98413L7.70072 9.99019V9.8843H7.60072ZM17.6745 2.9483C18.1681 2.9483 18.5697 3.34993 18.5697 3.8435H18.7697C18.7697 3.23947 18.2785 2.7483 17.6745 2.7483V2.9483ZM12.4889 2.9483H17.6745V2.7483H12.4889V2.9483ZM12.3889 1.5099V2.8483H12.5889V1.5099H12.3889ZM11.1145 0.235498C11.8171 0.235498 12.3889 0.807327 12.3889 1.5099H12.5889C12.5889 0.69687 11.9275 0.035498 11.1145 0.035498V0.235498ZM7.68532 0.235498H11.1145V0.035498H7.68532V0.235498ZM6.41092 1.5099C6.41092 0.807327 6.98275 0.235498 7.68532 0.235498V0.035498C6.87229 0.035498 6.21092 0.69687 6.21092 1.5099H6.41092ZM6.41092 2.8483V1.5099H6.21092V2.8483H6.41092ZM1.12572 2.9483H6.31092V2.7483H1.12572V2.9483ZM0.230118 3.8425C0.230118 3.34984 0.631829 2.9483 1.12572 2.9483V2.7483C0.521607 2.7483 0.0301182 3.23915 0.0301182 3.8425H0.230118ZM0.220117 8.57671L0.230118 3.84271L0.0301184 3.84229L0.0201178 8.57629L0.220117 8.57671ZM0.389194 8.84734C0.285735 8.79711 0.219968 8.69194 0.220117 8.57663L0.0201176 8.57637C0.0198686 8.76826 0.129302 8.94349 0.301843 9.02726L0.389194 8.84734ZM1.03198 9.13621C0.813638 9.04244 0.598093 8.94862 0.389145 8.84732L0.301891 9.02728C0.515343 9.13077 0.734599 9.22616 0.953055 9.31998L1.03198 9.13621ZM1.09252 15.6697V9.2281H0.892518V15.6697H1.09252ZM1.98772 16.5649C1.49416 16.5649 1.09252 16.1631 1.09252 15.6697H0.892518C0.892518 16.2735 1.38368 16.7649 1.98772 16.7649V16.5649ZM16.8117 16.5649H1.98772V16.7649H16.8117V16.5649ZM17.7069 15.6697C17.7069 16.1633 17.3053 16.5649 16.8117 16.5649V16.7649C17.4157 16.7649 17.9069 16.2737 17.9069 15.6697H17.7069ZM17.7069 9.1317V15.6697H17.9069V9.1317H17.7069ZM18.4193 8.71963C18.2064 8.83181 17.9877 8.93803 17.765 9.04092L17.8489 9.22248C18.0738 9.11856 18.2958 9.01078 18.5125 8.89656L18.4193 8.71963ZM18.5793 8.45377C18.5796 8.56512 18.518 8.66757 18.4193 8.71964L18.5126 8.89655C18.677 8.80983 18.7798 8.63908 18.7793 8.45323L18.5793 8.45377ZM18.5697 3.84371L18.5793 8.45371L18.7793 8.45329L18.7697 3.84329L18.5697 3.84371ZM7.68532 0.835498C7.31351 0.835498 7.01092 1.13785 7.01092 1.5099H7.21092C7.21092 1.24835 7.42392 1.0355 7.68532 1.0355V0.835498ZM11.1145 0.835498H7.68532V1.0355H11.1145V0.835498ZM11.7889 1.5099C11.7889 1.14327 11.4811 0.835498 11.1145 0.835498V1.0355C11.3707 1.0355 11.5889 1.25373 11.5889 1.5099H11.7889ZM11.7889 2.8483V1.5099H11.5889V2.8483H11.7889ZM7.11092 2.9483H11.6889V2.7483H7.11092V2.9483ZM7.01092 1.5099V2.8483H7.21092V1.5099H7.01092ZM16.9071 15.6697C16.9071 15.7185 16.8607 15.7649 16.8119 15.7649V15.9649C16.9711 15.9649 17.1071 15.8289 17.1071 15.6697H16.9071ZM17.0069 15.7697H17.0071V15.5697H17.0069V15.7697ZM16.9069 9.4723V15.6697H17.1069V9.4723H16.9069ZM11.205 10.7799C13.3627 10.6488 15.319 10.2418 17.0434 9.56539L16.9704 9.3792C15.2684 10.0468 13.3331 10.4502 11.1929 10.5803L11.205 10.7799ZM11.2989 11.2411V10.6801H11.0989V11.2411H11.2989ZM10.4695 12.0709C10.927 12.0709 11.2989 11.6985 11.2989 11.2411H11.0989C11.0989 11.5881 10.8164 11.8709 10.4695 11.8709V12.0709ZM8.33052 12.0709H10.4695V11.8709H8.33052V12.0709ZM7.50072 11.2411C7.50072 11.6987 7.87289 12.0709 8.33052 12.0709V11.8709C7.98335 11.8709 7.70072 11.5883 7.70072 11.2411H7.50072ZM7.50072 10.6861V11.2411H7.70072V10.6861H7.50072ZM1.75825 9.63937C3.50991 10.2826 5.46522 10.6679 7.59518 10.7859L7.60625 10.5863C5.49342 10.4691 3.55792 10.0872 1.82719 9.45163L1.75825 9.63937ZM1.89272 15.6697V9.5455H1.69272V15.6697H1.89272ZM1.98792 15.7649C1.93735 15.7649 1.89272 15.7203 1.89272 15.6697H1.69272C1.69272 15.8307 1.82689 15.9649 1.98792 15.9649V15.7649ZM16.8119 15.7649H1.98792V15.9649H16.8119V15.7649ZM8.30072 9.8437V11.1709H8.50072V9.8437H8.30072ZM10.3991 9.7437H8.40072V9.9437H10.3991V9.7437ZM10.4991 11.1709V9.8437H10.2991V11.1709H10.4991ZM8.40072 11.2709H10.3991V11.0709H8.40072V11.2709ZM11.2991 9.8757V9.7741H11.0991V9.8757H11.2991ZM17.8341 8.12099C15.9668 9.06171 13.7339 9.61616 11.1928 9.7759L11.2054 9.9755C13.7675 9.81444 16.0279 9.25489 17.9241 8.29961L17.8341 8.12099ZM17.7699 3.84431L17.7791 8.21051L17.9791 8.21009L17.9699 3.84389L17.7699 3.84431ZM17.6747 3.7483C17.7252 3.7483 17.7699 3.79259 17.7699 3.8441H17.9699C17.9699 3.6824 17.8359 3.5483 17.6747 3.5483V3.7483ZM1.12592 3.7483H17.6747V3.5483H1.12592V3.7483ZM1.03032 3.8435C1.03032 3.79312 1.07495 3.7483 1.12592 3.7483V3.5483C0.964888 3.5483 0.830318 3.68227 0.830318 3.8435H1.03032ZM1.02092 8.32471L1.03032 3.84371L0.830318 3.84329L0.820918 8.32429L1.02092 8.32471ZM7.60644 9.78446C5.11108 9.64145 2.8776 9.12157 0.962985 8.23378L0.878851 8.41522C2.82023 9.31543 5.07916 9.83995 7.595 9.98413L7.60644 9.78446ZM7.50072 9.7741V9.8843H7.70072V9.7741H7.50072ZM8.33052 8.9439C7.87284 8.9439 7.50072 9.31632 7.50072 9.7741H7.70072C7.70072 9.42667 7.9834 9.1439 8.33052 9.1439V8.9439ZM10.4697 8.9439H8.33052V9.1439H10.4697V8.9439ZM11.2991 9.7741C11.2991 9.31616 10.9272 8.9439 10.4697 8.9439V9.1439C10.8166 9.1439 11.0991 9.42644 11.0991 9.7741H11.2991Z" fill="#222222"/>
</svg>
