<svg width="20" height="18" viewBox="0 0 20 18" fill="none" xmlns="http://www.w3.org/2000/svg">
<path d="M18.809 7.35322L10.2934 1.11823C10.1292 0.998024 9.90609 0.998024 9.74195 1.11823L1.22623 7.35322C1.01823 7.50553 0.973036 7.7976 1.12535 8.0056C1.27767 8.2136 1.56977 8.25873 1.77774 8.10648L10.0176 2.07336L18.2575 8.10644C18.3406 8.16732 18.4372 8.19662 18.5329 8.19662C18.6766 8.19662 18.8184 8.13048 18.9099 8.00557C19.0622 7.7976 19.017 7.50553 18.809 7.35322Z" fill="#4A4A4A" stroke="#4A4A4A" stroke-width="0.5"/>
<path d="M16.5523 8.21191C16.2945 8.21191 16.0855 8.4209 16.0855 8.67869V16.1085H12.3514V12.0528C12.3514 10.7658 11.3043 9.71879 10.0173 9.71879C8.7304 9.71879 7.68331 10.7659 7.68331 12.0528V16.1085H3.94917V8.67872C3.94917 8.42093 3.74015 8.21195 3.4824 8.21195C3.22464 8.21195 3.01562 8.42093 3.01562 8.67872V16.5753C3.01562 16.8331 3.22464 17.0421 3.4824 17.0421H8.15008C8.39556 17.0421 8.59643 16.8524 8.61503 16.6117C8.61615 16.6008 8.61685 16.5888 8.61685 16.5753V12.0529C8.61685 11.2806 9.2451 10.6524 10.0173 10.6524C10.7896 10.6524 11.4178 11.2807 11.4178 12.0529V16.5753C11.4178 16.5888 11.4185 16.6005 11.4197 16.6112C11.438 16.8522 11.639 17.0421 11.8846 17.0421H16.5523C16.8101 17.0421 17.0191 16.8331 17.0191 16.5753V8.67872C17.019 8.4209 16.81 8.21191 16.5523 8.21191Z" fill="#4A4A4A" stroke="#4A4A4A" stroke-width="0.5"/>
</svg>
