<svg width="28" height="27" viewBox="0 0 28 27" fill="none" xmlns="http://www.w3.org/2000/svg">
<path fill-rule="evenodd" clip-rule="evenodd" d="M7.13847 13.2702C7.13847 14.1496 6.42557 14.8626 5.54617 14.8626C4.66676 14.8626 3.95386 14.1496 3.95386 13.2702C3.95386 12.3907 4.66676 11.6777 5.54617 11.6777C6.42557 11.6777 7.13847 12.3907 7.13847 13.2702ZM15.6308 13.2702C15.6308 14.1496 14.9179 14.8626 14.0385 14.8626C13.1591 14.8626 12.4462 14.1496 12.4462 13.2702C12.4462 12.3907 13.1591 11.6777 14.0385 11.6777C14.9179 11.6777 15.6308 12.3907 15.6308 13.2702ZM22.5308 14.8626C23.4102 14.8626 24.1231 14.1496 24.1231 13.2702C24.1231 12.3907 23.4102 11.6777 22.5308 11.6777C21.6514 11.6777 20.9385 12.3907 20.9385 13.2702C20.9385 14.1496 21.6514 14.8626 22.5308 14.8626Z" fill="#262626" fill-opacity="0.86"/>
</svg>
