<svg width="16" height="16" viewBox="0 0 16 16" fill="none" xmlns="http://www.w3.org/2000/svg">
<path fill-rule="evenodd" clip-rule="evenodd" d="M8.33898 10.1892L10.1695 8.46437H0.500652C0.365058 8.46437 0.247719 8.41769 0.148631 8.32432C0.0495432 8.23096 0 8.12039 0 7.99263C0 7.85504 0.0495432 7.74201 0.148631 7.65356C0.247719 7.56511 0.365058 7.52088 0.500652 7.52088H10.1382L8.33898 5.81081C8.23468 5.72236 8.18253 5.61179 8.18253 5.47912C8.18253 5.34644 8.23468 5.23587 8.33898 5.14742C8.43286 5.04914 8.54759 5 8.68318 5C8.81878 5 8.93872 5.04914 9.04303 5.14742L12 8.00737L9.04303 10.8673C8.99087 10.9066 8.93351 10.9386 8.87093 10.9631C8.80834 10.9877 8.74576 11 8.68318 11C8.6206 11 8.55802 10.9877 8.49544 10.9631C8.43285 10.9386 8.3807 10.9066 8.33898 10.8673C8.23468 10.769 8.18253 10.656 8.18253 10.5283C8.18253 10.4005 8.23468 10.2875 8.33898 10.1892ZM15 0C15.2813 0 15.5182 0.0963532 15.7109 0.289062C15.9036 0.481772 16 0.718749 16 1V15C16 15.2813 15.9036 15.5182 15.7109 15.7109C15.5182 15.9036 15.2813 16 15 16H6C5.72917 16 5.49479 15.9036 5.29688 15.7109C5.09896 15.5182 5 15.2813 5 15V10.4844H6.01562V14.3906C6.01562 14.5573 6.07292 14.7005 6.1875 14.8203C6.30208 14.9401 6.44271 15 6.60938 15H14.3906C14.5573 15 14.7005 14.9401 14.8203 14.8203C14.9401 14.7005 15 14.5573 15 14.3906L14.9844 1.60938C14.9844 1.44271 14.9245 1.29948 14.8047 1.17969C14.6849 1.0599 14.5417 1 14.375 1H6.60938C6.44271 1 6.30208 1.0599 6.1875 1.17969C6.07292 1.29948 6.01562 1.44271 6.01562 1.60938V5.5H5V1C5 0.718749 5.09896 0.481772 5.29688 0.289062C5.49479 0.0963532 5.72917 0 6 0H15Z" fill="#707275"/>
</svg>
